<mxfile host="Electron" modified="2023-04-02T21:06:11.174Z" agent="Mozilla/5.0 (Windows NT 10.0; Win64; x64) AppleWebKit/537.36 (KHTML, like Gecko) draw.io/21.1.2 Chrome/106.0.5249.199 Electron/21.4.3 Safari/537.36" etag="MjX2fw4U1s7qVAy5U7aL" version="21.1.2" type="device">
  <diagram name="Page-1" id="8M58Rzq39Wg0OsJOpSqv">
    <mxGraphModel dx="1036" dy="606" grid="1" gridSize="10" guides="1" tooltips="1" connect="1" arrows="1" fold="1" page="1" pageScale="1" pageWidth="827" pageHeight="1169" math="0" shadow="0">
      <root>
        <mxCell id="0" />
        <mxCell id="1" parent="0" />
        <mxCell id="9MnGjtC8QhtEFFOf_FAR-2" value="" style="curved=1;endArrow=diamondThin;html=1;rounded=0;strokeColor=#CC0066;strokeWidth=8;endFill=1;horizontal=1;startArrow=diamondThin;startFill=1;" parent="1" edge="1">
          <mxGeometry width="50" height="50" relative="1" as="geometry">
            <mxPoint x="810" y="1100" as="sourcePoint" />
            <mxPoint x="800" y="40" as="targetPoint" />
            <Array as="points">
              <mxPoint x="60" y="1150" />
              <mxPoint x="30" y="1020" />
              <mxPoint x="750" y="1030" />
              <mxPoint x="780" y="900" />
              <mxPoint x="70" y="930" />
              <mxPoint x="80" y="800" />
              <mxPoint x="650" y="820" />
              <mxPoint x="860" y="650" />
              <mxPoint x="130" y="660" />
              <mxPoint x="50" y="500" />
              <mxPoint x="840" y="590" />
              <mxPoint x="630" y="210" />
              <mxPoint x="40" y="360" />
              <mxPoint x="20" y="40" />
              <mxPoint x="390" />
            </Array>
          </mxGeometry>
        </mxCell>
        <mxCell id="9MnGjtC8QhtEFFOf_FAR-1" value="" style="shape=image;verticalLabelPosition=bottom;labelBackgroundColor=default;verticalAlign=top;aspect=fixed;imageAspect=0;image=data:image/webp,UklGRpreAABXRUJQVlA4WAoAAAAIAAAAcAMArwQAVlA4IMzdAADQowWdASpxA7AEPm00lkikIqUqIvE6iUANiWduvltzwoV7q0+ry0iCon4z+x/4vQ15T9C/uWix/q8rJDngfze/MP09f0j1Ff2K9avqo84n7mfsB7tX5kfCD+reor/Qv8H/8+y8/yPqdfuz6wH5pfE7+7v7l+0z/9NX8+S+W35p/hdrTruPLfzvfA+D33+fqetP/o8cfrlqO+7/+V68Uuhgb+C/7HqU/j/8L/Kf3X3e/kP3Z/w3wC/q1/1Paz/weVb6x7An8k/rn/2/w3+o+I779vQD+tf872D/166zHo7ftqR32VeDCg3W1c1u4siATcVLXNqYXo/8pTqu/OGO/8klwyiDK/7jjILUvqmVMOpESe9ZebzOHrODLQAljJ/hZy2GDy9dDoJ6CU9ALP0ij3w+GOVeMV0ZbKC7u04HjkXR0p6YgPw5kS0Jtdw8cqj/BWlGmsNGvxThyMWUkafan9jtDg9XuCHECOU1o42/ODZDbShFTMqX1r/1bOksWsQMyi4FrpIGhlse1bBBIFkhA3YHWV8BJV7UfhOq6R1GTi5D8gmMvEpjv3QCUVhC0FWbUb5AYWYYgIiDxvZDzrxSEM2IWVaP8F6u0l48N6tfVMsXze94N33rDa+0XGIJvIjFvBwRL81Iq8QzQbqsJ4gkZVk6OUJjOkoUkQrXDvllQn8Q3j24EfGV1g4Pposu7GtLrA+EnHAECEww1N87VAXmkqJKmqpmm2Lvb+hmkmeAu37Hy+bx8/5HNEG06xTgst3VV1CPrZe6v2vP+dS04+uf0j1eMXdUtV74YbTUwmyz7CO6k+TL2KW/iRi0Fa3cIk2bI8kdeW++m1XGurG2TkHWbSYvgtIw3/voDj5x5owUjR++HQHP0wKSNyYrHh/12EKVpzQbn5/E33VMLoAeJG/9h4PpTKCOYr8VtHQmX1yevFaaCOawvffMOJnX0KYf+qV6awgaCFeS3GkJg2qFbWZQrGBN+DG3yqHtJwPPMUoVDwaSbXjGY+gwf3mq9xMglWQtc97w+vTKEvK74HhvrhiZFmHRllnrwchE1AW/AA5+ruyr4YjrcWodaDLM9tBTHT/RSY5QyXTsCz40dSFA8U3d4c7qEs+rid5Ur95aFtgoX1ozQCo2KYtTLKEeC7LCJioHRanisvPECxuZORzydt/IpXftcAIj8jLNgAgAeLliBl46f8/nqPa9BfX/T6jxklIo45qOWxCgPlCpfgsNStUGNPPrtuzZW9DgEsmgpCSnCG3Mz9iF4FTU2RaApQUim9xXLYhyot2vnAcngG+Dh7cqcs/9j3PeyyfOG3VW40oMlQSYbJTAFNg/iGqdJPwS22So0NDgGicKSp7m0l01axPbYHmuTB/mSsHKTTFq015h1IPFeNMGqkHlntd+gECO4jVDjzML+l2zTAiPKq7apl9WaACmC4fsJj7cFeZrTdr58ozReShvjQWGbQ2khzYPIO2G+6qDPujbqrvx58zkNgOsQReQKQLoSKC13YwB/AZabRcj39zNVRKYsyQ/hwNnLQEXYiRtF1SWQGtJmnKeDdck+OaQa3pcRUzWNgZmkc3MCGjrRxB/CJ+qw6hm02XzcuVGdhOLEgf09eW8amVLJqnmDXp8tYSg7WO6PKe/9DDwJm6pqNthNy/1bnKcs2z5NHS9XWBm5EBW+GBj8vVAddit9BneRe95lMypf8oyf9CMckaecQ7/dK1hI9khLegjHu612ZUKzeyhPnxkvtp0Ho6jbZEQG/gQcXxvff03C3WiEtHnSo8KXH2Y6SUCc8lnWPnRzOgoLa4BNfsbMn+lfJwlpgCd0Sxluz/hYOSfGxITLy1p2hpkBCPIS5dEfSWEKUf4CAdm9/Cd7h/3rrPr/VocFB6lU932CLJv5gY7eEkyJNc5lmiM3s7rQrVSYzWoHQD8wR+ah9K0ZvdeeIHbPjb1paGitINO1StRaMMMX31NaMzTq/to3CLKZlytZWGNXxj0d9ZrQUrQ0Z5pYcYlvxw7mk9w/RVHLDOX14EkvvmMzwJDEBwBkbg0mQ/znLHwuORT8DupXgAHCR6/LJtN1j+SqL/FmgXK+SRKBB2wQwTW/8zzOurYXOUeiAabcELQ4Hy8LV5RwWPcKlHZJAZjEUveFz61YfhjAY7OGz884KjRXTDbRtNhcVZfdpdW77LSr42vGpxFLubojc5A0yI7OLK1g5s96JDssKlrUcuPktnc1pV+dCohUvVpd7SIMlFqG93mnndOcvHDlJKard5wR0WCY7+o9g4T8LmF2NHTjmf0t3giiGwpUNNXA9R5YIGJqqKgsZpqxSYqmbztcYy63sUFomCrrlmcvlPAEkmmGizNcilLb1xypcU+WvSB0Y/reDzJ3LxMv9Z9byKRrBqTHjxr+lKULgJHY8G3WeKab1ZUUShtnIAHWNsF/izpwwYQKWynPdKGFdv5ZpWpl4kXkQrx1ai7PGcuD8gpzY462uqOFjhkXLTZUldDa5q6B7SM05ARoCUqEYtMAJIQVPZFaYOcq0hFO9CCwg1QLHL4sg0DXSHNehfZ0JQbz65NWioafmYYb5IwH65s6tAZx3y6RfOetU22pHmsnfZm8tu8eAQwCyHt12ScyEVHNMhnmemvb1pfw0K0MEkKbNgpoguiL501Z6amcnoDwLB/LTEV0w26q784bYxdZQQbalt/wsHwCpA1Cd8T07DQJmsSvEjrROITM/Na4F9DZT5UoX9Pml+Gj8IghhjvNJjH4lkX+z8yCCupzt22bg9m6q7739OxQPhBkT0flXfe/qD046tTuGhaA9cFOfMDD1vpxXDanYwN4wVS7L7+WMX0dxB5xS3/NzL7xcvLkTa76VfomOf1l07zABgAUggT7odNIjUs0VitujalQbOWlpehgEsOHZe+WtXvCV5gMfBZCYH3EYASQACjxbpcNpht1V3XQ9LPDW9D5gL1A7qI4L5T4ciBJZmUoeYUTz84OnXkOUp1Nv7zNvbwZw3sNx0ZG3rrRIxcZMiPJMx+yg4vJ4KfOWNetTy+GOBUe7HHFqs5zdMvJIarI4QgVN0g1NAfw9cGICAFLu/yPzhqsshrUozlfHNahiXTE3EopjyIiIKvo003B8SPjGFmuq+PQoh6JbLq6pOWimIJ0JONwvW3yOkAEjbkO/vVYoeKiRj/W5sRn1Z4gBmNBal9bLcHMSF5i53S9K5ZgBJB60rTBNETrht5O5zpUTGIzCdFys3iKm9zQFEzT3hA2MJgGcKjirQagjinvr2pa22taz0Pt0l7Vw0n6a1MqptueYqy+jGiWPtsRa3nkK967zsqIzhwboJmOZXGSRMG3kgD+yX5uUvwfQwyJIBscodHlcCS+2uwhbNw99BKJeyjpv+PCVfvw01VDpX77SAz/a1UEj1U3Vge2Afg1OIfbCZy+Fywb2n+9DRB6xMAtoCkm+qEE9UStmVOGnOKjA3VudbuI2xV+n3/JK3+1Ye5Z0HrhRJSIIxGD+MgDakSAYRZviDqvCVx3z6CgCSAGEPmAIZVr55YfM+VvubscE57xrAw3UOpDAkKdagaO7jhwgO2QNcWlKbrgX9ZoTKR88q9Irq6JKXkP7sY88L+D84p6TxDH9HkisrmyuCBLIigUZPYyrHRHpwBT0ciGEEADmQTuBH2rcc6SYetQUzMUlxCsEh5Rsrg4RCPhlwb6xTQFVPkNaPxzht0m2YuYUqph3zwq9bkw8YuOrPg2xY/+PMhBggvnanukaJ7VuSbWEv2qY3pv770er6pYiW40SsxcEh7H6dBCxKU95mEJzROH20E0Bp0f6WEG+Y6TB2u7/xd9rodofEgmRLQm2i+hGqux3btzXo+2qmLcrBaGgfy0DgvGTmltFxbxD1X604YgIAVZxnykHpid4ZAbvZyZraU0hoFmYduoptJQRbG/OhXRRGqs34ZT4HGo8PeFUw4Gd0TT2m0c2RrvbKTKekJ6qY2mEu/KZBshZa48seRmH68lm7QEmCEJcmEDdVd96xA+/4f3x2+Kz6ysJPXx9M0lDXqRpkWJq9VjuNUmC1MAJIOe2AQKiKeqk4IaOcR33V/73Nfz8PY0qH9e7va1KgSHjCU3MPpFf2cxGIahVlSthkg0ScxRyZx7eRz9jIwbHuvlDZWP80KS0t4be+tBDfYzwz23nYGL0cQOaROU7ZSn5Viyr5nlPD6sqYASQgVCcNVzmpVXw4k33sFch34n5vb3Ir3TClZoQAQM+fkcZcrHcYT1KExsLd+2hnhtAuaXzyg3uJzWnnl7ar7wzdL21ZBvQvq/s/S36LmDD9C01Xlp6942pwlOkemCtXCoVrSRlklsm3BFnPzvimpqEUVbk56mG84pX8It3uWjNPZMVG086Wtlw3tCzl35w26EeZk0jkSdX5uOWpLMCIvzeeJ015jJtLlBln0CDgWXOWXN3TKzFphFMye2egznuSN/qYmvRebrtUiCcEjLEyqxTbsxEp3/F3jW6paKCFWwxweFdvLSAmNwMuMHVy39BkKe75M4eclYy2fZpRtU37s6lEx+Oysaq784dT2Nohc8dhz+vON3omndf8RQ3NXJlo2Y5hT1eotQszdkBz5kdPKl+8FtRelGFvSkCAacioO/9Kew5C2PaLff36wPacB6k5WT+Vx6N5E+CoDvX0cvLyChriB40NdB2yhBAtj4K4XqXnulvm73VinBgLIG0KdP+ogZ9dUzO464oV7AsbafAW6Fn0yiYUp+6jl6B0I85L/pH74m0amRJCBtFYS+pDLW/OmumKWl5I6lVLMkrLBLEseInsp3XIFPEtXm6sNe8MCsYlyPo3cpynP7dpTgkywuwv5xgNYnL7bFsZYdQXB1y4b+2q45LIvUXEG9nYGEhBGqgZxwKXl03dEyh7ZyKw7XwBWosJDaMy7AknpP72s4bdVd+aVFCZee5aZRM4aoAjBKZQNCzSH9RvFvJvu4UKcDi3d56QNgiKf+TA083/8mwnhmUArRq3UwXbifKLJ9uN8x2a5dwpmPj462wL4tz2iWbY5fZlRhLS5TypFAEji68rcPTfdQ4yG3wwr4T8R21phGGLqNzXs3/YSPboFrBcrxC0TOvI6M8hG8SthBebkgbTFAAQSLVWrsr8/euJiK7uCMw16sS/+lYMRBmwg86SLEU67r33HQgn9fQV+9YF3a/22h/Oqa5lZnWCzPGWzdqeOJX0Dhnc4NTOPLVPsMVsdvj44uKYv76/kPgvdmg3GUDvDc4MI3oHRFslgHAeTXYzRIGOgkqRlzkj7zelyGmv6mD/XYtz2ancrdDygjge1hpOsilUTNE63gpNzbQbdVbiG8RcIssZBHHRt1V4okqucZI/9w331hfkVlp+JGLobYvtmjFKypXhfP//JNhzUF3zKFzOF66h2Jcepf9HNqyl1mfzPEIiEo9RU1cgqWpvkE4+C6h51uX2J7fxPpn4iYL3SSYXAkyj39KNPlAEhW5F62Pc/SHM/bII8cnyrDvhCYjlA5Zk/mP3KuMUxBhpq0pl+ZPm3QmBCqzqrv5AKqTI3BoAJwM4Wpf+iFVOmRhw+JCN5R7/dnvvnlLHIWgUzpqgc3t9dDCINBIfVdVxHzn0hOFiq5MQ3Vq1/Ll0ZuWHCCWm3UYQrlERs5wpCWLSQsBEzk+8UsKCiq1xxySk0o3+tq/UrSf+RjcV4H0hSKQg1TyUHLrgacY+UP4kkL4DZ9Bigy0CPtn17/iB5zZDvGjsQ7HZdlXACVDd3ow7aE6YiumBZgG9Ql8H9ZlbS4pz+d699D74bSf6+hMBSWXbaD5111G9a19plrUIe/6HWNvFvx09PBlJaHVSnRc7aTEsqVoftKazWNXXOKP2cLXD7819Jj2OwgCBiNy+nA7NPI204zMVCym8L03+nDz3hBFu/Kj+zJ/bD1LyguvMzSw4oQldl8QEtMgZjyD8a0beZzQkgAtVX9TYe5LgT+1rP0rvf3gEsZOGiMjtr26WiumGjxZWgGZma+pzpUSpKK7SXVfXHUgrPUWywzm/dfOs5v/++CbiG459DkYVA5XbahP6AkCrPq0FPciFX2lyzS6t1C6+feHr95u5ufHCEuof6gilQevVhwQ/x7m2KQfX5eFcGxP+xRpYTLmQ+Tjg4nmetmD2ImHH03OJIyTb0ACN3sFpkciyzei/uYdoNuqv6oPUxbrhbUUxnDWJ+cJVpcZCRyV/EqSA/1NqqZ77zbCZqsI4fbv7iEKJLeTh/vieoEZiRa/JDt0/pikzmsxSzTJ32zuHMTltSuvAdNwro+2chjThAaGBDjX1Bk6vdRq42l3x3CKvS35VxaEtzyjnSjAW7EEXbIiVQxcReBC3XeBfBImUgiYiuoOVzMz3niqqt3bACRCFfBptQarL54hYL2DQiCkIG9aXBX7kf6ofIJqRa5G2/LBRdmTX66WH3MEm1lVCbKGPt5z6T05cznX/GxukGIdpzDQS06CbGX3/fVHTmuy9c8+ZH4li398xjVhwsUIEhz32LuM0LqgAMihPk/uTXPdlQHY5ET4O+imG4P66WSLp/ntWre6vm6g0i0hrUIJ7RmTXvuj7oOAKw3/ogj2nG72ACmKxuCO/Z48mVtpNMk0V3gT65VpW5wK/3GBshG8bA9GN9a7rZM1zo8CrdXleiFHIxg+l/r03t/D8FG/x699HPbUE/WcIdHG+T9qpVM6B3cHK+qd5JjP36sYyuXTDP0IVPWaM/CNiC9jh7Cal9XfDgayN8kk3FMWfDVSb2aDNl+znvLm6zR5GoViRONlMvfRovXpkD895J+yYAWQmiuVZbX0m7UreuSD8PBkgyJQ3jZsNuXSMF2QaxLvmIxG0CMvU0Nyp7wci8H9n2Nf+GQpjbKulU9qcrP34BUUs9T703B5MHRy4GmFa7KGO33zdAAv3Dvyye7zxYmjlM5jH+qVSGch2nfKFRsqvLFZNumEDOMN/qYF9FknGM1X4eRKIY06wt5/u6gFYxVFz2qX/9puJFf9o8LKmoKG0CrfKwlsIa1QLGFBeKjbIovhfd5GgeTFQa9BejQOmLqamADtUIEHSJfI7fVNTBKSiEx5IoQDfUyrtYysGYeJ7HqGPTPr7fbF2iRDT1mfgN+2oZAplOf/eFQQUusXixvu38J/+erQjVkbATlwoqw57phA/R0IM4Y4p9ILFIdRXzXyO8SgNro+Tl0vrz7OwZZM0A/P6Ngk+WFOu/U55WcuhItLR+qXC7Y4TS1g5Gf5fVvyKmQ5bprC/eIPUOunIBmINkvwrMSMcXfMwLhyGiNCZt4kwAJH4g7Xsur+8QomnGKBWleUN4AYWWzWlL8io7U4CZ8ZrUcqyXhSB01BlUvdBqV7gO8CciiJ0uT8cqUjD0P16ieWpKHj8P+BXiajlH3cL66ou7HFS2UPtCE0W5EsVYQY1vTycgyVFhp8qBoWSL41rEpBmBNJDxyjFWnOc2G9d4x5q+e2XRpHfyP1kEJFlrE8bzX9sRJRwbUnvMHDcBwrdBUsgyN+b1HlK1UjjmYxDjlTlU85Ws+7Shn3siIBWFj9vnH/skrlMU8Yb32d+zQV+NyqNjdjgycokcLA7rSBeMx6z7/D4nKJ+4r7mmT375Q3WE8gn5ExbNSy5mbzHzEYwR4DU7+DtqY0hIsc0+iImPpx/taJ8GMjXVLuY9MFWO/aVqo0c7wYzDYJvFeJIwCSTOWPVbrJUBWVT8WX1qY5ojdgZwOYANSDPanzOBeYiVlbbl9/xVFPPI5QyzrmG0604n3l1lxx3w6T/+jXBUybqGAGhDjMiUHYdpw+6to7avv/o+xlOi8B7Q+iRspXlH2boPO+u7xFg2nhTetcGMz+Uyfb1kGnh2zmEkMmgUvP4JPLFX54bv4ejrnjKVhsS2lABGlIs9+WBlqwYwcxIUMioXjyYSHkP73r57HqQ9u4ytk9c2mu4A7Su1fpF2t3qjXhaOBo1tm9udYqEoOP95Jx9dkqnVchXD9pnYvttPVD4GfIuS/INOj44GePD4vukeJqGR8VRu4Vr6k+qUgaNH+x2/jLpUUHTFCKhR+ZLyjzNPFH8fMzVpEMatgP+sGJKWID5FyVu2fm4iP8hNN0GWEd2YopwuvRyKi/4ory/8UWg+cCwCRlzso+DEpOTEBMDuNUH/GkG3RZX8o7++j19GCP1vv0viifLZunUCc9PG+xjLpVknafCJ23rVP1hBAsxZzUi+Yl4zEWc7vZWoZMK3X+0yWg7XhGSHeOSUiX4uUT6CAXK8gk/UY8swmi9xZ2bJvIpGDTNqJzExVv+oZRlvy6EAsqbYiNy09DA/cdUqNGenfOkEoQWJ+/4jgz758BdY7V/NooaESHZfxdw7f3JWJEGdqPcHW4zjRatQz5Ws/5/MQOw1q8WebXCgiZrpgNgRl+O/zgCRuWKlasf2EvuWiUZSU0prqcUmqGcShSgwWsaIuX+dEfUhljVcH3GV7xOdgSrQZPAVuL1JkojbYdDZMWljEAlI7Dp2Dv5I54QgugXBYnzVXbmNJ3Gl6eOKpSOCo3IqKu8YNaic69b4olSCuIOMBX/oLiL71PBpbNnH/90/D7Srpu1w7RwzcwgVcjmNibDpHd7alqegEliZdRHq+cQHL+vJalwr9aw1eGSjvYAmf9lZEdFd9BTBu4RfFr3YrN4VVOTEOpnc53+RJY1sqpozLGZh2mUsxQJU42b8DynDRkfGcaGajCDrWRCoWuR7NOlJPlW25Fa0nMnbAqU+Rr5QkqHe6sDKzFME+egX/AZW4lIwz0mbDPwHMYoYlC1uazzExzmsqWTct9JJApXO169JZNmnVhVM7yY5BGHLYmq/u9nQUNxyloY3p5H2/N0mdsyh0TgECPB2pVBayeMojB+Q2rx7JCTGeNHibf64n5XDZ7qB3VhpmyGFFJjs9/85zZeSZC6YfvudcW9JpXbbBhyC17z3WLPymhnbq+TSHSURpPFhg1jAXbTXAea58Nz66EslCvQIwcHBkmoihcKvAFsyZcJwqPvDuEmlwcsyGPV7WaEG5zR86sl1+nTj1d8haaeVd5vas6CISmllHbkxZTnr6pjKqpJ5rEQxhAM1dZq4Kobg+sdM6YU3C2xvCYwDzZhHkVGTC2hmovnhi9ERO3xQ6A4RtAZWp03KtXTLQ5NZkLTQR+Eiv7LWpD0lsMAzU1CFo085xT6V+GCqMJ40uL1g5XaQk2SxeIsDmVm41Xv7wFQ89GiwHvJn1pgVXkxqHAL26MGbJmG1qQKq/+5FtsOYdCbYW0qylBuKhonF1HlVUUFopfl7PYe2nQ9Y+PHIHX0MZraFJdUP8TxeXqpDy4uGYWgobvXcSY9glQYHrCkEzFV1KPHDFXjRQw6rG3s/Va+xn/HuIw0oR2fMVE8UV2oHmC9q9XIR7AWSDRO0hOVAD9vqUKTw7lqfcKZ1laImqH+tcgTFFmZU1jHN/Pbik1StcGFqkvJz/PEPTYsIBcV0E4HQUCeXcoJUW5KpI+1hCb7WuQ2byAf+Hlay3MrquDu+Alcb0sl8DyZr0xteQbIUB+0Q1GDdsZycgW/cJl5BHnh9dopzYkekDVjOw5BSdPWZgcMPNX/v83T+smd5zRSKy2SW6VkiWaZxlS1vMgbHRwjYkw0KprIs9eoSrhtO6YcVLamu+saSL6IpcE9K0Hv89rC0Fcpp/tn2jnNhPbOEdYhg4rdjgL0VHA09bUO9ThXgZ0qh2nGLClcF+RlP3a8HNqlCoMqhAP7uPfAoehzrImHn6/i/yBwZy8H/EfxPRPE0EFTZZk2K1PLIKtaEQJdv0K7mmlINYcOYW2EYyTtVAXh6qQss/ZMtCNtz+erkZ3cFlZXfgVnhPECZtKK7QnLUfRjfud4SSQDseqEqH/PstcMYd7RBPOV7yg0fkNoU0qsTK751dbYa4Dri49nQq6zGzbv1UYng7CHdKa81MrKavqj+M6CDAWs0PjJdR3wic9pLN1Fxq3Y69Us+kdRl4pebPZ2MOAFFgaCOJdhBgx4ugfpB/G+tOVNwBswFLv8D73tUj3Krc7Y3rb5D4CXQN3bNjgmw29GCZyI+EDFkv0pBjOJ8csR5L88gw4vYNAbCkyFak61gQDr6kyyMtCT4qzKw3jHYW7DNO+CNWB23VcWOIY8wf9kibS8ySb35sPqIPvM4ilFu9bv56IoikyDYwbD2N0w4NuS+uMso0Ga1f8wPXih+PD/dChlfX+GMbP1QhRbSWnWP8tgm+6GEAHkd+GRl/6Dj5226ztpAULPk0u24UkPdSR4w99wZ6uu0twNaTW11j4QDX6a4JiGV+ZxBTtz0FS8dTlws26lux6jESlz7gq8kNNPFGrD/nJQBHY+dc+W1MXm9cXPcDg3eqjLaM535lQvH2WdlQ3l9W6DG7l4WQHqP/hwdERFm2YJOno8LHyEDR09dHEOrh7D9WIA0xabu6Kark8gcJt7s3o7RB1AKsA3X8HnrhGDiM0eKrkDaet9abAgdltMxcv4kqHiM5Bh3v/aV62pQVg6UVAcbHCF2v8sk0oDNOtx6Aneio8lF+I1WpE/b906wM8aIokZaR3U9PSQXP9KZoJ+fX2bfz0wAFlqChwKRiDeAnb2xcER6TthuadlG+yJhDYYMldEQuSq9/87ChxnKit90BzvvtKZuW82IFGcWnI8znj+K9/+wWrhbrnGDTwr2DI5lVAKQxMOGlyoAgvikB3Nhc9V2yDdM5iijTl/WfvvGDdS4lDBzbVDe6svQBdCwSYhHRdKjLTUtua8ps0DywK74DNkXeXdmKN7Zbm/a4H3AeIKGhy6moHXy7Uyg3JhVbpcN8eytkxUb7Rs7vp7Z/TdRDAsIDsq09sJ53cUM65IlSA6ZAd2vABE+zVedOEeWzH7Q43EwoU99WysrccTOKjw4oJbq8OSPDJQphrXA5r0k+yHD99AHtukmC0NDzCMGIyT/S5iUuPc1Z96wJ5W0u0F+JYzu9jRFhB0cDSuSwWV1qYzh5AEsTKl+inmgIFrKFHkXgQhk9LR2n/0hZSXmo2EogLnJfG4swEDIg+7qWeFbhM5pwAZxJoNLSbA3jeg8S/95kfQpVKXH6nJdtUqtjGIDT3INbiOTtu+kAfUpXhel0+63JxjRvpR/U+6jo+NHH6pE6VUrlnCPJV6i6I/QS9LaCOWU/ccx7QCmmyMECtRKe/0jwFdJqrIxxyEbW93RaQCoGp+exX0jUmWqSpKSxWYbqlUoHMBgcHZuEhFaUg4aCD8Lt0k5yBc8ABMzcGRCgQV4eFDigfAkxkbXAJN7OI2UY7RcjmqDpkmGIsuuZPv3cq7t704+LrD2hBNSDXCo9LV/BZ6X6xXhVMeZa5W1Z5lPWEo2IS+H4Qhsl3mi4u5gVPdep+jj/POLzctXB9fkGJsKYnKneHRjK27CCboqDWnCHihewv3YZfF2qDanEygIJaMi1JMTRpXHBmgcddKa9SO5ngD8urgNALRvwC9yeyUAvZAc1rfQxzSptJEuiFk+kRSJL59Njq5pSiCJriJg6ExUp2NOkXpScQCXlA5UYmLQUO43g9vWXFktwgFGimDlGPX49hzg1376mCbb/MMzB/BjjJ86VYOIlaclOomr6pDtmXQB47A1SHip/adZlJ3MSfHS0UJ6E50eh3E0xrhXx0iztrSJLbSx5jmzGyFUJLd4F9J+4A8uAY5GLgHBUvdltB4+f/xQq3VM/jJr6YHaRpDU4exbeEPP5EyGVePXGbKA+JDLaZYA7Wc212q2rW75DzH4OQSfcq7wNOCPORoWwUQMFRpQN4i52O82sCVP4c7hdgvABDE9QaPGmjvb2XVUtSi3w54h2pWoGzZp5dmPVK7rcc231gZ45B09BZxVu2QvZD+z/7DbqmiJJUfWjiUTzcqfYnG3c5QUv8sAjCrtHB8RIbpobbzQePhkE0iUOC6/qPbp0I7k4bQhDwZaTgNK8usOcIBqTqby2fOT0h/Bquh4S1h9mTRHjm4rurEJ+aSMko1j9gTd1xtB5g+0HCB1LqI0dyi5Zl5mdEQY7y54bRRqnSONWFlwAgJ4qEpkRo2rIgf8cslEbJohbLDvYrb570misUZerHrfg9otwVBipfandt0awaZOO4MrZS+DWFgNtp/xTvBiaJ1zvfdRI4BlYCBqZRT34LyichYn2reIadj8bIcjzLiKaECkyVkOC1FusCAobwAFL8aszWhNM7El7i9Z2oofzaDLEpLuDCDljpgGMJL6y0VURRA40u2pGuB+026O4bnWeAJP1lHneT5yAbjUTxcIQeH2vrOyWbzQhuaTD1hX7IBI3Mf2qM6sKm7RQ5nmvey2n8Wjh5Yvx4AWvwStl2+6/94Kyhb/eybWBZX3DFBk8D4hGjD/+hNbqsPPSev3pNZa/OWHds5NlkdyIrHR5OmtYaNsWbSTDKkY/9+3c9jShC0HZZ9peVGpzqIeUqxYgu2KGpHE+PAu4dLTI+rS3jr4Pz78ACvCSQwtgXyHkneMNV0LTCfgFBBzUCh/0S0cHPcK6l9XTWy3jffmGAxkHmYizblHd08ntHIHZR0ti5uNckLg4CIal5npIuP9c9qkRW57ezX/vrpz2KmQVwWbYLh5KR8yYQv0UpkHXAvuxMcSTunWexiVWM75S5FZU1Iad7w487r4/5RXmE6J6GZ5a5vBwFI2CUPbF4OY/WIJy/G3RqpoqviEvtriyLWWTLzh5FtCTJNX4rotCAEXphZrEizL4RyBLW/K/5VB0O9yvWAKucVW2EuOxpYinZyy80PrC9xwRJlTWFAk84F7jaAY879yIVDca1gJ1g6qgTO6SlltnUnbwE3r79v0LutAd2jtuRD87zN6VtaR0lQ58g1/MisKo9H1m94CqLwuWv8MC029Mieu2jQxFar/elK48MS3SxxSliy7Ry81RHhnRByttYbu8UZMhmrqEoODcSgRKC5Am6hT1RW36bi5eAYskrgLgUj/4q2dIzBkzrdfb3McH5EjaXJGa85uT7tFZ9/+R+b1YhRcrziW5gXnaAs1XdXh/G+3wSWFJysjNq8FtQBsdWupBBmBNWX/00TvBx0PpkeNCLCMoZqOHi8327k/hegKoEdqCbKdclvBPB9MetJTXo//ytlQ8ERZwlkUNiqJlPfY+iJsWLUuLHmJOGy/4LTOc4owjSbYikkCYih51OJew/n2Zd8flhNneP0J3/LPAvgiR2FTSo+LbnF+FzcIKirc5YYPyUeAOP2tUif++bJOHOD98wzRdpeOhTy65z9puJctOroq4qu0wjnXblQrsf33JDeQmn5Xk7nJlytAZ2i5lW1MCVsZ3c+vX1E3Lp2mXbdGjfUJR+YsLSBXghVjTv3HNotoOCHTqgo5kk1BHeeJ4AFAxAK/c3vgkYp9TGxUkpBuy/tUyoa9i/Cd0zJMkMks7V4td59+xA7+D4JjBYOE1Ig8pKoP8XCECvNUvPI/URghMhRGuEBnCdNmRS/ejH/ysRDLQDBLxM3Bx36meZyEOfcn6s9YyfUB5OJVORMcGq55+kaJVMKsrLVH1JbTkDtzBInJ0tNpC16G/3YxNtaaTYHN3A7gedtCRfnKfr3PxEBex+che0At6IVycM3jEnGSVHI8GGSXxk9NCR3QGBuox2h3/s+dVEYFOTNtRRfO6zvn9hFOCMvtdRtP8faugCWTmNy1cGnK40ZmD4jRvjRNgr07i6B4QhuorEmsf6wHYsl+ERTvyGlsA1WySCpRSp7J3dFvTvVImXJL2ROMEUsWO9wGn674tW32X2jU6g4cRn60Cq+FrPVIKQBDGXX7bJKN71BkiaMvdEU2FVdlczecnDFMzlHhggDo9V9tyAlsFV2x3g62oOMju887ZRtMUtEuPjcrheW5b2a1vv1t3Sb8hfP6nN5vAvv28DceiqX0POuODxLAKs+z6onI2F4J6KGZWG/4zZVjDz66F8utauEa9UFHzAFcmGBLw6r20b3b/TJJrhle/V3uPso5Y1vqxjwCy7gxNUFoieUaadP5IuDhmGcTUyq2IobMgPcyBB+1SudF60A0Nkw/uuIuS1yGihRcxustUfmN5AjF4ineEdNhFlSRAH4oLbig80l9HLW+76uJy/q7Djh+a1Z2X6TYDIM+WBODYvSl+pTMy5W3Bk0s1Rhm8G0MqKfryZ0ufIfuvIQ+UfuM5pfac1ugoUHO2E05qCPwhSXNJraS0Qu1XupfylInRZn/lwHde7EP3fIVw8tijMDtJnjN8O53nVGMG0OIOleeyrks7vZIXngZR+uEuTvbj3Qt1HAw2WBoeGG7hazbznntxDZ0lqcXhjDj3ZesFhvdrn0Y3OP+wJOHy7QN74HeDDL6oQ0Fed6ro3KAljUWcKy4XurSBqVMQDfhpQTWuuWaNjIvN2X6fLpgJqWyYm6HjIeYXi4FZVwv5A1qUaAIPimkQZeFHaCJtVM6wVEZ27H9sH/+Jt/kovvyjp4ZSt8H4E8SItlP2I8BKCvur5X6byUxJ7z+GFN0RcmBOqBf0UbXBlfojOQLzOg4mgWmSSVsWKbFWe2sizLohlZTlOWNihx2S5uapMk9mW5+9R2ONGUzZI7vORl24cZZQDGKQjUcU6IPvCn/wUZTmERrwk08RNOXoadGHogn65rwVKMsE6KKsF+XSjsJKKAN2Kj26KDOU9aeJkrvQVoZVVkoRqKnqcPT/FUKfcM9zzy7XIj/W8IUet/oGATyfsn2/PAGuPFkqvGSbLlXNe9b2yEb+MARdrOFX4cYr+ktJYDp/9fi/ccdlMLksWe9FBWHOItuyGn3QnmD2SXR7sWKRSPcSeqQVyQdo4n8peBQ7AHmVOwvUP4FFZJKiAcnVNC4cN08bXUSRDQ/+Xx3KltoDvMV2sm2UqtvChRCjtLMaAu4JkUNM9/+Wvsxseg7pjCCZxsb3XKVYVQQLz0SCUq+arABYZAfmTt4fuyN1S9qe6+UGKAO/U7FrlMQBvZflT8iSMWlloe8B1UOg1/Y7TqoByJ08OixreoWi6Y2mhIIGDpHnP3PKpxkQYjT/2GU29A/axPmcnl4nxVmw5cNuxpOnzrxOZmn7q3IUHlx9wHiHZBjTV2EcnHVbGZ5AnBiFYwsl4s8A33D8iXLZYZ6vmYzYcIDA2a3iBjAkZ92zvHGrcdQiX3cusTv/dA5ZvwQt/6yTH2B+MbbiDvlbCKTzvXdn60hoIm7+25RUw60k6Kqgr3YCYWvBqDeWR/qnh1NoTRPzLA/Dvw6+ci2Gp4l309F/+PS+ndJX7C3qdzeoosUG9rYgvUooEiFEAcNGUO+iYZjfgULZXQCsOfjbb5ucZDXgma1rtleGcxq5+5dXYXQZiMkLwlUh5T2/hHGz/C3cdiukFSLa6ql0i/2BNBUVMYdC1zhqTj/20pd97yqs7IF9WnPII2uXeURz2T5Me5YpyFOZZxZTgTxQmAnheeKbAWb7vkN1MXbwn+3OpmTO2muAx0qaSxhlSI/ne5rxDvpaAAA/vR2J//XXwb8kWSf/rX1D9maRq4JMvqLXfWNGAQSzuU0ZbJhLFa336sRHNrLrfc+OOCTUUc3kvNa47AtwbZ+vutGOVGwmULOZ7PTVOerbYMpen/viwVvs6+6a8OvSJoYEJuKEtJXfLkfDxi+zlZsjm7QdQ+Zj+CwuxWXGBtQpYG1DTrVVV1sRWT/GT7H3h8wtAxID7RKfvXiGLL0xLNq96QJMgAAHlrZM1IhbMAb/iUgXAUeQK6jwii99vCpQ1i5T7sh+QNgFWuR+si4g7NaZXTKkBw0P9NCfQnKDeShk63CvQ9gAHjrCgX1rtIA1X+tU6UwnRSCNJVI+aUS1SVn7W4Dd1niSjAuy/16nqzFc+Cfl/MvnYCrkuwQi1Z7x4mGm/hvnGLl2ecR2LTcka4e7OqNT/lmoD1ebD7aFnf73V3OQLfTKNXPUWRHIC3ARh4mJv/8vqW9+Ds6Yr8wsk/Wh4vZsvF8eKzZN46yUX6LXHYt+2/yptNQn8wsXsNj/4DWa8f/P7cqtRAOQajrKA9ogFCjlacPamAqBAVwwc9At4IH68rj1Vmp/l/3L3xYeuB/w9WZWLNrPEcP0+c4HobhDHfvfRI3ru3ANdG+R4Tu0sVp5vwBQFKIh3risJODPkpvK2rEG2AgIclF6ajN4bZVdgeZbhTa2sYHWQMvctp0vAPbkfw+W6RwYW+9Yf3XoJdjj7oGcx8MAvcOPn+B0nYZsAvUB2znaFGagLJfJx2yCy8sBkvQKcSpKwH6UekomOAEY84rYm3fkAq+Dlz8RysTeuOGlriD2VjRR1QxMXLZvl+I1o4v9HRKDYhsKORpGcBjwKgtl2fbvh6DN7jGKZIFN+Oe0VPLIX/uYtB1VCiy4UlCbgg9g5axZcGTs+0U78+3E+GvX8QT3/+RNc8YtWSORaTMZUf8BL6vMyLFNlH63GWXXXUqR3EaacU6SUIVzO8/FA2LAIvkmkXACTLkuLJeac4RVlx05hcsUBItVD/vVbnmNYuTm4Evl3irk4vH2oJM7JR6JFpMlUmw7JJnTPAeSxojqkb/FMVnYxcCgvvvMIyKrItiLTtQHHoqj/ibRPY2W8Vq1nJDp8znPOicDx9NYqONl2qnWrNoYx6qIeaiQ2twLTxIZ7l8BHx7IoE705MEEgQ3HvCkEP4WCAkX+MWtOe+pe7Wt7Tr9oRkqe4v+v9FnDCA54H+7962ohg+d5wP8ni7RWHemtnj7NuLJMFDCQUcvmRIKwjGbyDOrjwS5TjKcqgsiatdpJvyHQvcHZISwkwdMbiVskkWUDQok2oX3sFA8E9FBBT7ao4lR6GLM5Y3Sr8krnzf/wpnlx6cYH+cW2jIUG3EQAFb1BhAoNCVRbstNh6lJfchsudEChSvd2Fr8+yE14sJgNX8Rgk0kQ3uYCDYlz1mSwRYKI3eMGRU0v1lw6jhD5AJ5S1wEbIiuqKjkrvIClEleqpyAaUCfwx77Zh/XdSWzo6Sp3smg5lBwvK1367eHhzbBJsBZIGvbmddCeWUdhf/wCx1eJkLRMYX4WYknn+ciqEV7/T5rtKJP90wqkmXUAr3bcSo7PY9+jjK7V7W3I3pN6kWz8EdhqdHXt+pNbUaTN4vAmZeC0qzEIkDyIItJQrzIOVx/KorrCGzeeKYd3I7MMNJHJz1KWmKy3amJC2nvW3LSSkzD+uEw6gqnY7bNMJoj1wsMEyqIXzUX9JeBY6q7wKhlyFl6AFcDRu+uxuq4Z28AACoR56JRhGtg+jLUY4w8hzlet3Mxan42+tOeiCI4SP0+Wwqy0Z9GDqi/Ac7QwsE/xUP+no8cnXQeDigWcxKcdFtKnY9QAWH5IgByu2aD5BdmjvnC3wH5sFg/NtL5YJwEt5NizBctDwi6Kdc4z7jbWCE8breVHust/pN+4+x4Ew/WtdE7Y4EzCXZ2EW+cK0qpEdU++EB1rbvPPItumgVUr8YgShC9+XfehOJ1WelLXfeaZZcAdH76lBFrL/8j8sXtFevFZnI2kkYouvamr4XCJBX1kd3j9eMJgFpWAK0g7GNrAvan4DKHky4GlYqiR0HxKLS2BkGqQi6MzyLLIRj3dLf4nJQD0+VCvgS1n7m+EXG4fsSKO7xVFpmhLznp2HgUYXodDOpUZ3XEMWUtN9AlFRIyxYIUuUrJPioJm66OZNB2spHs21HBikkb26+oO7092nYAB/3nOjrDTZ8Qda92tyHup+3ajAde/zA5e7/tqZSQvYMEDt7w6Zie5lGhtXuGv0O60tYlGOBkE9WRVO1zRcTvhIxUwV9ADTe470ARad0h+9QGoLcor60o5SoQilDQWOvvMHUKfojHr0+2ZwDNW1a64aXpIjjdhUuit9J05ldAHDg8dXMhhI9uuqOyFngLyTfgUzG3VigKbijV6NuN1i982/L6xGChE0b0p21mCHYaWFGPtOjcuulb/502OoZ2JX8Mnuv2tByRauwxBpaXC9oSQPwYNAMWA3DcWJsOPoWGE1QpQjvnZeNE3tIlRc7jvsZm7Twn041LJpPf8+8EyIK88siiHnhaZ/FipKtI9omDXzPp0Jri2Xv+yFh93OPkrV4UVYsKdtiQMG8EcF8Z6fAy7liXr91lqduXCJA9qNVfmDRO/NuruFz89W+TyxPvOpPMtetGxkMdQcQ6lVNZKci5qHbkJgYP2j33o9WNn+sdD+fm2nEXhc7CmSua5AA7Lk91ITWB1SgwSp0qSituZfsT9cu1E7Y0hgGZmH8zD201ZA4ePynlwH8bY/tlM0hSjQCxRYpfK4DLtm4YgXxBEo+NDJgGISHwYg2PnGSvYgPLVzMP+qVCiBew9H9U/Z+bier62PvKuk2cT/l1eFc1vQhr+giDxvGPv/ttwJzJSnscAkC1U8/aWYdo3LM79mwhT210uhhpZZxzyJzJiK16VvjDBUNAZsTYp4ix/nFzc6l7C4CAUQDrDWaYHhj/1WACXGX7srUqhYx+k/iqMad3usBJn7IdIH++w6LHW4Mzpl2IlFfdvYzB0RFZrpesOc81VX+WYvOEDGUTkn0VXzH5ciwK9sIzo6vusFGmD7O2ytA7Xdsy+x1GiTorNf5DWL5krvK5WRs6wlkaRwR2SO18knKAg2Ci7USZOnJ2zOUZs5AWYpjG7M3Me8c8EU9dVKUnlUVFSJMFbSgosbO0pQPaeNRZRwFMkHQhDwZF3b6ZnhLOaLcUHj4UAK6BHZ1TmB5vZjj2vI0pY+koTdPB7LgI2htAzEXGj+5nY/8ydtFjlwg4fsaFRToxtMOH9389B/4arnnIUd6l59pdYi07adVVm7v1rmntbBf5tMyclJauFN1Zy/RrRG6IwQ0CiKmGjojXdn3Ccwqhh97b/MUS+n1KRAYqvUjKLvebAE4FT5D4KEV2dkriMKxMVPow8ta8jilCh8NBs3xhClBbrCQlCpKmP/+tQXH1lHdcMpGu3YU5V8Qxuojt+lhzxxPplTtQtfevbAO4g1xaE7ApAIrq01tmZ/8X/uKkkMVFwZR/fdkwT+NY2POC5yaSPTIodTcqFUXouV59/5Qu1+EFw1PwG34lSI6Otpx8v6MzJlaok+rZYmXquHLAurxj6XwC7tHzFjnYZyBqLPHvKCXy4fA+Jrpv4VokAAMOlWfnuEJt/WHGUMDZ2ps1fWd3UZgG4fjnIQLQG5iUbbNphDH7340xv6N7e270PLTLLgX6p8OdAWQS2Psw6EzF+69/w2BhZCCErsxeIn2fd9BR2Lnnp6/htqcDgJ1Rso0HlHj1vUbkZLfw0vKGyuqCXXyhk17agw5JyGczr/NnUcy9pyHfYAALMeadD6OrFlVlptJJ5Zbb8EFVLjmkVrSymxaFBF9fFejJ5syZlciyg+lDTuFQnZd/2cTw3maz7ZoQNPeB9w5LrkcSPP7KBkKJkotFoOLRSQYAxmyYl0ZN/TYW5+i8m55Ri73kaCXa68Xfyk0BcgrIdcF8zBkbHRc2cuyJe0BXntAYBiDeBT+pr0RvSkhmDp40PhAn/x/51bMf92HzHySARW3115eqrR/e8DHKogiKL6uG3AiO/u8Nk/7PJLOXK+CkQ+OXFnqLN1ixcxxciAsGMq1aN3hvt7u3OSN/qBNTq1Z21MaYItxJia4oj9wFgB+kbIFmR7uK17xKkuZZA547GClJDu+xFfvTxZLwnufQhV9jDhe80NYGpNfA2PA93OoaEGGzjEFG1RE2WMyVC4xwII7tkpAsJ8zauq0FxLh4AHIJ1294FE2FUJFDh4nSMe18XCCPfZ5qVwDNh4pchGzgaiaOoBsNmKqa5pe8gBi/UJuf42keZKdujhfjG0Xcgm13ZJCc51YXOzIkJWknyAMcbWmM8gbc2VPXpXZNy16RfPPLfJOO+Y2ivXUIbsrEW4QWdKIKh+hwRdwdYeNfCnCZHAOWLJaV/k06Ec5Xb+p+8PJkXwJ5dNt7d93UE92uKV7ocQ7gAACjyrlaP9AtFTbsGbG+l1bdwMO/LUr1NxmWmHBEcMQP9T7NchQ0UV3LZO/8EAA+C7EuCVyDFsny3pkP1BsqjLsrYzbQMaX7vBA+kKEug+M+cqQn/Klk2BoaEkcL8mJnIl19yc3mhCL3jai+XgCmucDmNzd3/3hqXKmxortDBd8rufyalSKdQvJqbOzmK6Fuk+73fxTXRfbkANuzoM8c+2rXFp1TGLB5hQJBRSwi09XEU36MJbJM2+pmYR8/6qcwJdcZXe+RHxOPJHGwhMEGZzPeyQsMq9dlHLCU5fjQ5QzybNbmwAQFANPBlslukvwJUpXHR6p3dQRGgABBl0KMzImWv9gP0xT6il80q5WV+9rDUTRKYSMI1IdxbQVdcvPAKWXYFS0QqD60a1wjmdZF2DXUEry8VVtAhglp3RDW01f/iKfBLix67IrDSQMGhFYYOdWf0H5CTEvnjkpnX8jn7PQXXOIZUApp3iR41UJcXd0k5OEl4xpsYu9+Qmd3sMgTPqoDcsT/9h5tl/WIxlkOrl9ANXdsgM6ilpiLxIQH7QRETeL+A0lvYwISFeTUZrCSSUuQ5pSbuNXZD0jNpdlZnkIHTzm+mfpon8RGON0V7vgCeqP5dNGmBV/3wv1D1Uk5CkFHTa9hLW9l9Hy2yRNqGue3ZxzNemKWmT+RdYxj2sLCoywfg8EPjoIV6cdEY8c9avgBRAGmC+sbBkWn/tjc8Xic9SS+zvJJNo7EiO3EkELpEmRakmqQ+nwAfFWEDnqnc/7yDRIFofTKcgzWDr3C+9uzltXXoDliBFhwD/VGESI6niT54UbG4YIb7uzvmPHDMO3GnpmhNH01weQdlWhp9VIUELHZLWSPk9xJGfGP/s5gmIOp+0AbrNAqjfeLr0uWjovAafWugWMCowGXRIQbHZijjnfAHPjFpH2zV+obOegN6KkbPkfXFTXAzpOsos/Zk4Wy5pyCpF3nEHV5Ch/vQAPslWS/GcWV4CT+s1nki+zSUIWiiuQIT0um5v+1m/6F//9bzQCTG0laRnqAejTWKiCFc6/1gVDRQca/I511ENItuXu7kh3ogFxmlDrkC7uTsJnGrisDL4D56Zv9ipW+Jm5J6DrjV1T/SS2aCa2iXCW2ZjwnsGQqu5M03umk9UzZYgcNjrpM0VI76lcApD6p741Q6Fq0wJu7A1BQhF6TRiugEjdayh1N2r3VnPuRYqbLgjA1FjRWtVptbxbMVZNR7jAK8STY4niTv9jHfIF/tXYvpodbVVRum7nzm2S0fdNCCwcHlbx9fjmwOqlk8+HDmp7KwacS96ZYQu15bDPj/T1xoR4tIw27vbub/gmQO9MVtnT6ErKH1zBJo1kzPUzMLbnOqlVINKIosuRRYYq5LYIFn+l0tbGrQ4qGWMM/qZKFusXuZt5TpjazVMn8Scxh6wcqf7tVxAcqJzQGXeeNr4Aq2btAh0A2Jmbd52l0BvP5K3S4kNWN2qozcI3lNrZDekdkt4UH6nRSVFlcpqnLpog5puK/yWNNs+iFbvkfNaKH/kPFfP8TkzQVv9tl2b2i/mTAom8x6uUzy1+w7aKPE7G/mQwKTf7Le67yQfz7s3yVWHh2X0B9+f3pbMrlOZVEbFpSviEK/Tk3Qd/cF1YJ/zP929zqo+Wvj9/J+mvUrPcgM+Up43PPDj0BOh1Mn7zlnrzH/MqOjsHjs/1KqqsnLIZ6MoqT7KXqv4KQ2bzurZ9UdDlKWNsgWWKo3GynCIVVuqtRnxLT/EfaLJT4G67UuECzOefdqQgAESxbEUKdhW4rRTNSamk87Lb5GJ1XWkB0mDClkqJEXMoAvB/JYlILNoX6D+WKNI+qvWc1VawXau8WBhdCHrSVEPkl/PAY66q4MZKPVHq/GT661zUCQi4pPh+TwUZWdtRca8rRxlvo9CdCKEwwWsczkAJaTY1R+TxIc3GG2BZ+lgDexMGHVg8vSpPqdvzEUt6fVoWuknmhMUIXWKI8foPGP1uG7vhyQ4WXH71Nx+zuTfN/qSMCFByE3fl0Ofgb8TPMo5VrW91gpcZwjgTA7XtzCjSvseYUh+YahFqbZBMZbnn/Wp0iYbY3juF6xWbFzwcIUHrc4HODsGTdA0ujHfjl5gIi+74mCZFh1jtjhy0iqI9Wczi6qAABvYQAJQvOMdMDGT7hw5YeMYyTvq1GXlqeyrv+bi4odmYZOjK4ZURyuTk3oYdgbGh38oA6d7KnvTxRBEGuMzxwmQ9vlwn/ViXo5tYS+t8SmYhfLuUsayBbyZDxRx+5qJX2Y0xrhj4xI4KpG63YBQK9klHj9Ul/IcoU43ux00O/onKv5JzXB6ymhA78oDq/AcfHdryujR+mBqCJmkaUFrVUW2UfYgCMjTZB0pOue6ZTybSPMQCUKHeJ8n5AB0DdKfH6SpMYKg5sIBn4CgO7S8lm3b5NU9fzVlvH8omQk4LwjcM30GPpP3Iei8oKvXiX/2Bcd537giPGlFykAABG7QAQdy1eo+HrPg6VH6uBwzBgf6dB85mdX4Fv8eWmTlsoqAz+2Y9jwG+3b9gv81GW4p0B3wHeIV0qys7+q4/A6kI5OzNCJuUnRNZMRGAZbHgunOpmPcInEN5kMV8TM+jB0udNyD9vKqvhNFi0HavTsOMWpi1SxGsT5syy6Xx4tgedfvITd1EQeqx3RWl8TxEu/8uh4qQmBQ+sQOIZxqThXWIew6C2Fk7ZP+lk00UvP1fRfE96xv9ovOvbMbmju5TgN0najiNdSPC7OpdHiYpC7Tth1rAvBEQr3nZ/A+2X7qriqCoaoS1/mn+my6vnWQhw6GfGz+zaLMuje43iCEg9SPn4uQpjniRoLQVdbvLDiybQmY9muCJhDgMn8C7aTGPf1d+40grK1+NPOyqo3tF6CnKCRkkxwXjw+mWBYGhVFLEz3gZPdNnpuqbH1VsrEJa0Fft8qksN/Jz3vBniQ7sKPoLXNv1IQOZOOBsHAEzGwRSTVnzVQ4m4u3m+ZullJnOeA84+Juw51fa70s7qHuB/gWQAdhkVswsAa/nZpMIM9Zgnb9Ujb6f7VPPbr0AQi54Qtg3V031mv1tfB3cvCuBLfFbt9vyAZWzftn7fBs0HXk4Eh03/5mEln50lujFwGDdzjQ0oR7B0h4BRZfowxOB+BIAEz4qA3FTfe9G8Fd+v9O9A4D8TSIw4iw/dKWleH/y/UtGhccBw/rNQikLOL4f97aK6aJq9t62/vfuaMSEkwoHXtcR7NDc7d6zlXCZNnNstYeb9+HM0qrzaynzVDNVFOXTfoDBvb+YtgrrWQ1xJLVvD9DFv6ynh+eLeDi6HbYelPiV58mSbWH1q9TirYuADA/8ywZA0zmRm291XJmJ++TvNLUX2hlzZOFdrmyQ0Pde9Lu//zjKcol6FaxWXWkQpC8rw485/+a6RP6Qb19ofnt1C5Dew5HViQlMzZFYH2gr82qutmxKXZY3mkcsuxjwWei+SluU8mhZRF9OmcpQyJP5Z2wz7Q6VJLgPmKdoV6jxLn7tpSjqnUDcbQMz7K9nBGJqUMtQbYKjcREmRCETkDNEqc4AW/V50NUw3t6LcVftGa17gBO+3H2EaAa6DUjiBVm3YtRkl04sVS+Ztn9yTeUtPmoTZCDBUrSKRr8kqAH8vLViXMT1VdL+rHyG5fqgw7soBnfzEu9MaCCkcUFvUtQfzT0m1vxwlb0iSZUyfcJDDQhNYgar/RNbk55exzQ7Xkhmr8NzcaI+GjRF44jNDbHRyB3B9gP+ajXP+mFtB43oNZfQEeer/fW+n3C/Abn7vG7XkrQ8/X1Srj4rWlHgA8Y2HmUtSK9ubj3vG3smJcWvzZuytuHOgFFaa8zA4Cts7k2hYhcPOIzaLYsDa6JnS+pUcHFncHssff7w6f5NUNh9lAqXUbFvHG+5Q+sxhBWN8jr+fg/42wCcHMv922Y7dNfWMJT2XA0Du+MbuAdfDBm957aXnlv+cPN/85/87OBtNWpB6Re3sIlTdCyQAoCA725VNLAGX3nIzqyuT9e6OyBfGqRfWZOIyO0hD+OxPvx5KtSlGKDPkeGUEugdz/v7870atWCWGUEkuTMZBmaC2H/6pxy1qvVk6oHDq6Adiby28UgkPmNWWIAJnOkG4b27K/VJO6dUJ2UmfL6WGBNplqxr2ElAzljh7Civ+THrhnz9Ho/IZzsCoH81mWd9srBAoJFKlhAoG0VtHYrKYKtLrr/bjb6leFYTg4hlNmQmfJSNbkWCOLcNuggYZ3oDyBasu6VFxpCwSQYxGBOBmewcPae3Ebs7MlBQ+hziCd14IZ8UEtTE1JKvkRegQikTiTz5sr8f4yIdFMbostKWKgtdb8U4HeDSgxmFOq5/1X55e6yboyDZi7GYYTO7eBUlMAL7F+j3qxzvCHkQ39KFB2ZcMrUUZu1rAwRS39l/4iaMbyz7SiOg+CF8pTmi/Z/ONusf0MHRf1oHy/AmuEDAW8TxkBXav+XZvPOWPoqbBUGChiAClNonqe2lR7AB4Oe61AoBYOUOdqQIUMfwY8jcpVC0mSfAla7ho+8Lf2cMd/QlPheoUGU6LiTKSi5e/0uTfcc1CCW0dshcK1gc1LxhQx7gJLWO5/4iJsuCBOZkLeaKo98j5+H3YwO7/ECf/haYrV1LeGFJdc5zA0YYA7RsvjUn+fXed3xC9pgOTE0E/PSnamKngebTltKrrJVJ2tAPYFZRYAA5dUBHmSpNj5yrUsVa6F3rc33vb8vSLnTi71MBzLcdM+RmwDiDfIkHsHFcUtoaVHaNG2c4PNCpYhHxID0/uUMQ6bWnUtQJ8Yiq+PJOI4BYX0FjmxjdeuHQsK7LW0hSjoBrKPKQbpEqs6WjLlz/W6h05aZxosbeMM1R7PfrCBWdyWtZfg4WF4sIR7vPJFfuZifzbAMmWiKyfGMuZulErXG3nOECRkhG1wU6JuWD5rb+CsPMeexaA13EWTC1tR1c+6mxGftAJQNampVNngihYw4NSRp3N6K7Mf/Ng54CVVaZ/oblM0u1UsbdIdhVmOCiImDHttyfDhE6grbHnr9MGtGpwaZFtLg5aLkQycD6e21dGcQdWsDio7eQrmJaVz+Kbinn9Hw0qvlNNOLt9Ji6oKkpKu8yEfa/m1t9nPz//Qkn2i8HYctaLNBhjTIyrdrQQCvSa+wdjMqSJ3h6TJ/cgME4LlFyeB80Tr/SkhFjDo7Ltd7tZnRPSU6RTT2C1nBzaL5Lx1/KD1L+PiEFzhdIkyu0isnGhBSl+PTs9sKq6HmIAAL6zAAC6Z4x/jAACj/IyTFmAA7HAOmrHk7iynwxXHodo5hUBhUwlLH+GyLNqwM9EqJFqL6Iuokvk2rDPAB3XVs8jXnDIJ0cTTfd4DIlji5olZoWMnR1HMV3+x1QM959CJlODRTuNX2jRsHjV7bSJI0/is56/+0KQouXS6Zln52oGUDyljHukUYoA1P3Hc/rR5Ow7dW5Gbg7dZBW5AGD446miePzD9HEztOOdxgqGRPsICFPxE/r0UhZNrupH8C/uw45khRrP2amJuf85WWKcYtWvG6enssOLJPmND4NWbfQGTStpRyPLGIjLcdH7+lazA+pQMXb5WG7PWTnmVgqXlzLX3461ed1t0oOPBpBjkSOLzO3xW/QHx1vsEG1rb54aTyS4g4ps9EszntL8WefxyEIeyoe9HlbBb6jpPN8Rfy/CnYBGqY3Mlct8CYGxIjMAAtthubF+ND6UUdo2IvyhOAjyeNaD243sZfIsvgKYJiCoUCTD8UcG1s24tmkpitAQyHqRR0JPl3AAAKaz4S/uwl1oCxropZJGVSQmsrRtgr1XL8gWBnwKheMig1dGsKU6tPFIJeIVG8ChiUFUrFJO285HJi/6Wyw87HVkP3ExgzsRZolKsBZ63q9Zc7txKWndMvebyERpwjle9+x0VvQcZAnnVn1dGaWoo/HUh1tLlKOLpDsZBmb9utDpRj50t0H/esZ8xyP7vfhARgp7B3JAfe6APXrOm8AzytJWk0497iKqTdmwYd7b/30YJbpvTaC/H2XrLkM9Cumc7mdJ0kqmJ4KdRVOO0AiB2KWipdqIpe6qNBcSGXFzKyaxNRjuv8LjymRbVz8SsAQ2TtcCMoBjcO82sm10lgXPLkJwi+hQmUKXo+iIc4q2bnGP15pDG51q+TkD6BB3P1Lt6fdpJDPsRK7kuAckzN8WCPcnIKroiRjEAqMfb8qNagAAAZIKMY6HchQYdvlAOnR4CemXOQtnO8sXLK2N7zzFdGOlF9Z3Ft6WZ23oVfAqYeUkAG8jwyUNLNa7/RJQA0BX81vUAC/Wb+Cr6seqV6HoUaIWIn3Jjev+OV7zN/Jvi9Za6Qr+4j7gpPa8ouYHXKp5GMHeEwq1zfEP01sfgYUkHyGoJSfmJukTqPZg/veJ+leARZa9k06ZbqKtItX5LZi2W501rUATSWIY5Puv91vFv31XgIuVkzUsTlWigEfIcS7HbZ/8/CY4D3ctLPcoeMrygGHI+o/pNbDJDAgVTjbJj/xDPGfDStwBd2iayMkFojrvUmUyh34uHM+3TpEbeWMTwtsmXEjYVpNqGvbWXkhQP0wpJJC+FTWglL2V4FnzxW19Wz11ppOJoN4T2wZnEpUecyhfdLBuFe5iDnQ3ZFJl9FyIpc5eX/zawVeXp1tsVNp/z3DGqziwUWJgUgWqAACwyQPsHeKzOhofxivO8LjNfaoQFgTW8yaQxd2krH1Cg5T6vOwA4xVNzsWCmSh0ZCRhkUiI4gh/85ZQOm4fh4DXoEJjKVuHMbj4EeNB/aWc/1OicO6T2NYoTzwuI4UMZefSz83woqgeppIt6Fng2VCllE+mQH+SMTozvOsrjfjtckq5oa9w1T+mSJD9+VA6JvzC4sxGPJqXRP/ZPLWZW/KZEDN0uDQ7Ezv8yz59t805UXg53G8sVvY2tm7A/vNSM2WXJHsf/C9/362OhVBgerRxbuJG/bCMfKL15S/qmCy5WFq6zUAZnZ14xnbx/wsCzLFhKdMHv1UovWFgqitIgxMNgqSQe2Cpg6YlFVzpapEjNi/kTupFh7T8Amf8akP866cOBfXpYoPvFhM/3J3RAxwB0jNIgx4y7KL6tGKNycxpZa/BT3vGZDmEkLsbumGunP/b9p+rZ1stV/e8QSyy9W0HmxivMEv4biiaCiArkmtsfz/qF1rqu+mPjyVJP4zk+bJ+X9d7SnPHUMv+YZAAAJUHwBr+d61BAHBaaPR8kNr5iGGBwuaQS2hJjMM7zoW656pRCGaLL0zuLeIizj4opkALGPp+eJ5n+n18LkyRfJstS1kTQTwAtjlMcmCjcTI55CgRqlHEOH9H+B55FsHZO5KPXlYSE7lf4IBf7ud/QoYLYGlZgsMsMUojW95uUr7baSzZ4BNexadGLgA5spbJRQoq93NgW8xsLKzsu4bXphbqINKTtKuEM01A63SToGKg1MC/1214JnZ+/dvbdY18Nq0KxYuEADFt9cJQecQGunNocIZrGxF205sAyMz5MIE4KNoXRDF/n0uN3uFJG3f2rfUwHyfK8m7EI+3+MZ7xQhOIJweYb4L81pZeNnHRgbgl2mu2XyXOtY7VyJeEpM7C4/19o37UPG3sQ3zU6jaPc8h4eq12X9G75G5BaP/S/ykJ/fs7T6lBrgHb4oxUXIC6vKc4lh8Jr49pptrCOi5nnF+mHnJiE7nwBzZxq17F+WjRV8jSGUQ3BRW3K9TFGEqUK8OcJ1y/dCJiye6hwy/HxqdzpWFhsRgM2oAAjxiSBbmC3s7HiShRZUBYqnkOkCrQBvrI2rtw5apq3/hKOr3cBvfQOVkax4yG9SOtg0lKn1iaNpI0k8czZ9uAAAFIcAGdSdgrff8G5rpbM6R7pv0CRn++2EGHWNsen57Hn3C0BxAqWYVePGvqeUL5tGexB2NJKxnmkHeaJ3o211bGYErm7I29nJCTPJGZWkpBrB/86Z50mgB43W/0PqGBx80mYv4FC9w0KR6//Z6JZtkkl7UCCNF+uOEEvgKVmQBqvpq0gtDfs44T+kCzxHjGILPZH5z+26+HXXCZjNWx8Zh4JPvsDCxsUmpTULhYAQ+3c8bR1nj/vDnCsqF/b62OD4pOOUvhNZ23Un3jcLjdwDVCW+gKmCdMxo46/NSqYSgp9qhs0LiAduxJnaK0Uo/iOY1sXT6KSyvfXKjyg6pSokcsUHMby+OOhQrLCgXST+DLCaFOxYAppdRftkGGmVvuqzmuBEPp0tMM6rCYUbf3TI0kKwZ0G877PFj59yh4UR24VYECdMfYFLGmZ4PhAQl+/97Sq+FHdSWzo6SazrxtGER0bep8PvySJSId0l9zW75rwdPf16h3I509/V9bjrYJhVeL/sB/K5XcENeDQjR3jZAPL8dm7odkQJVVO2YHqrxwJS/9Z1Mkkv9z7PEvrullyhejsU0KT9QFZShllLNui0Lf+7clZlEanOQVYNc4rXRqYoOWzy69dDUjAtAvFeDWrEiNQzLiEYkLiharcOxOvEISliZ5iFsSGLWVeXTKyZnOkeH56nG2tnfGkZHRwdx260cc1woSTnRY6k18RDaABRG4SdmtVWGOWtRHJOyBYkw63aI9/cMKBvEQScUStxbOomaODcj1X0gdIRTKGSSXV2lxE7N1KTn3dbrrz7hWJUf1i/sx8izJ5q0vWjOa+lW74ii7xinjnSMIJPpxIWOwKshzeNgPrHBRtnitCVBTW1KWoGGrkzug01M4bH1kfn8hBzzvZXwUFi8to3eB3cdla8zN9o7sErNxrBPXG+0DWNO8vIxbRA/7iQSrOov0rqiK1HpblW694jgC2W8Mk08060P0NcgBK78by+jiRt/5fMsICZx8wDnPsUiZ0HxVc5As2NxaHUg1DAVnMAeRmTm1bUjyTLmRdjVQwV843mW+6EBcxqUX8BH/b8MaoGi5YlIJkj+x0xNqQX6o6afkNZYn6t1at9Q8nGPFlkmG9Z0+RfdXJJ0b1xI1pc60h/HYh3aKhT098IX3xh7UVzWlhurzSw9fjLY8nFfbR3w+EgYQ4qik1Ok1JttfeJMSJF7FFUIfoHt6AP7A0/dx35m/zxrXc9e9oDC/8y/zXjIYUYlL98132kUwPtazjXSefToSBVvqPZu1rbhLp23whHjbw/UxsYxkzwz8FrAa4DdT7fMDnTzXJWui+uQoVe1tuYQo4d0J5FMiAji4NMe1YGmHFABSlZNaBm+TwZoKeLFYqqf/G6b6kOmr+rXMI55Bqtz8OoKfzpvu8iIRQMwZx529qjnezFfxoz+SbJVMrL6eJBIWzI3iAr3OewO7Jd/sUndNf9mlaPwVsLzSxt2oPX+m3h7o6N8h360+QT9IFg52QBlS7eNBC/iIXCGilNhLeaxNRgrwkSFzuqnKhzSMzjKBupg+1SjnHcfVi+/jTNZUlg5/5OyjACU83/8OBPkGGl5eloehrtQTf33NqUE2V3jd5w0dwZdA7+Ng/bQ7erMC5ab+DZE8Zxk5JKJ/3REaVk+4miVZ9/Hw36G9BL/I95Di0BPR2FLpf7uReTnnt9+MqeOC/0CdxHlrm8e/J29SwMrtIbqdeDy2m8O7xLJ9P6KmQc/z6v08rpgoY0Dc4XtLzKEhLESFaH5D7BCA311ITbPteaPmf5WzmsJ0OYbx03zT0UpzvH7o547u9u8FyYBsEhBR4+T/WjXylIuXNalCr/Ir3U5BtzegWWOprZe0y1pr7YAzKj50g7Mbp9JC1jVeMb8Um4ccE8yy4ERMDV3xrjIRrf/OWcj0oWll0drGrixHURPV4CnD8/SpiPqPYPiae2s4GDe5Fn5eOAlYeJBA1zVdMcUplG27bvNRs97nC/H95AO3FpH5bzr0ZEvDjzKash58n7i0fR8mX815r4RPq3qf8f1imXNZ3nOk6K4iLz8nbWQN05phoD5WXy81upv3zmGHbCwDSBe36c/PVX8vGvhWGo9NbWpAXgqEQA98bdwBNqHAHscBoC930+iSPQKZ8snfGRSam61So9zJYT0hOFVlICk0V3oiVBuL0X/X+AvWh6EUi+PvlbE0IO8/FRq0qsXyByYBggW+xOCYTUDBP+DKz0qxuXxsDveWczC40lIDfHyV/DX5HMz4tkFqJyN/KHHMMzqATNqZCr34tNCRFjETJyoSkR/2/443TT7b4WquveiVkcmRsVAkZ8fGlcT8jNvjutylBIFkR8mPyK4J+Apea0IH/9ppcne4NBrcxAAQxK9ZE9eoT7/L1R6D/h8jZzaLeIh2eG4UYIRyZdIXgVxaFJ2qyqmXSdp2tQQQe5BhYt2OIyLzRYsdRQCeDw3Q7kj9Yz9vMJtuUJbkMH5qUG0M06wQPwFUzGx8b7jjSqnnhWee8bEOHdFgwQ6mjRi5w8C8VATAVB6Qp8WYr0b5548raCrPE1UzTQyG4mmgIICvqG3I05TCDq7Wx6pOszCb2OL9sSjirw1ymCT7JBMoL+jKDqMnya8wYe5XR8QutbC+lIdi88WVwUf2nBtf32QYcjWpQP+yuAAGEeAAAAJ0N83T6xUWuthFLp8o2OQ2AkW8U6MVgRnkQ6vI0uPl2vMvN1pwaYqWB9olnNbeeigswsUjVCAC3FE3MwFKw0n8+NjC8Cy+qEUDSAstueJ6Gnndr/jPZFvTckDGU7lIgiyvIvCFzc8B0yB8OoGrQ40tDIo4iAEjQzW7glEsEWuO4XRP/krd/hr//p44vaAA//gr1n579HRR0u4PZOBnvkhSOpjMt3SDNYEJFUs8/vcB2K6NnJ4+btR9UONB8Hx+xwIT34Ly+Z9Ryi2B3+u2ymKVG8EOceofrH0UZtaIA/9+UInfJDLoDgjW755y8IEnA3IHpNzuN4jjEBh1dlmmc2Ipb4yR1pR322FeaeDfIqumOxcG2wmBE5YHBUh3GjGxnUALk9ykxFwd7QX6Xr/xrmeRW25eAUjVAp4RIOvmsSuai/XAwttnmScJRmLF2mx0hcPjjWm1ufuLVw63L6b2wHHiD7bPMsxymiiMANL2izM5+4byZXMTnZDsspjpLmgUIQoWCZgTWUK9yRusOp1idKOTMiwKheeEFCZda2H53IFZU+woarhML6OGjLFI+q1KQ4yiNyqcWcZGLgE4IXnx+KcvmwTs66OjSy4Ll16B0+VIh682vQAmqOrCIPFuPRLHgVACk94gwJ2qt88Bmuu+qV9GmTQaw0ysBti2nGgLrfV9P0blAm3JgUuNZ2skIJWT5OPDjz/QJmWx85Z1LaUpwMX9T7Qi1MJ/Nfbm9EAAAAABqlmGreW2vlxyP7xuDbHJ7hL45KouJzRb9r6bF55esRuoDDfKwhAhwkgsC7omJ9TQ0NWCQt5Kx1PssGSa3Dg7JRUNOGc2PNyz3tyDd0d9nUItsfZU2nvlaMcSxyRyfZjgByQVm58lj41Hflrzg+d6XK08N7WJGhtnaDk7youOZ7KwFpqRmxK7QRRZXaPZriOhalqcEy+p1J2bGiOn/NV0xT4OO0CSEeVoy8gNemmMa8sZmX8bwzyP9tNDXx+tb1nsfOqFo6jOj3MGOvNbgIBe8+b97ruKeu1BK157M1FPNnVOowxeDk1K1bzC8VnrE7E53nyZhQ92WPMDiGLz3Dg6U78CUETMzRJxmK8QemWTVasPgOmLPXH8NKNlv400iDExBOWmmviB8dSLGknwdnz94EptzyLqowzLpJj341KIluswaOWt10SGcJLoWOLhVLQLXs6G44SUrFb7/buh/fsbPagWDtipCQw/psOkdocJhopd999Q7nrKfVYBIh5XUgJTuSEqjqzZxU05tqoy0XuRi5WoY9IPpC+1IDs6e1eWcNN2XnJE7zdhEJvc/ibSQgnVQqZq+8MpZ+a2nNtqDkcmxxOZVfAT/v4RRRDqEoXOPJUgrTbURD6Fjurxjmj/vNpGthBmpta9ymhnkpRYNXlAQogtCWDbn2DbZJn47yzrI1MzREveXmjFaQVw+vW2VzJznDW8AKUlyz6g7qHuGsK4ob48e42nk+a5Bvh4iEhOXHLFqfbyyfgKmx1umblKAsT8x/qfutD2qxxbfN0oeobGVulsd0vxM83cjX3qssEl4lkvwWpTM7sL74Ki6R/G+WlLqTKAoYaHHo4Z6Fbrt0BEkAAATNg3X79AAHjgtHw/7EJIjOdD+89XVKUBKSQEFzggD9AnVSujnAOGVYuCg1PgIMazacaDY0chbEOl4ddXe4D5f0wvO+/LmwV3b8kvJMnvub+S4OXkuT/8PGOtMd/GsdLv1IXwTaMtl8ep+hJ57bwZ/Hu9KASVqRzAQRSRN9f6MkhlLtKH3YCux09tnZbJ98yigv0lz9FwCmAUSuAvWEYVi1TQVqIUn2cvEzYdbtAx3PT1vEoxrPgyZQV6TqVPoWNpZOlZN5guj9XWTyRvib14mDROFxp77hSgsTpRWr81aSLXDaZVzzixWhz3CvBaQxp9CDyWumPcaWuAbxjs4+8JalqF1IZUrvakuSmbIqjiWqsYNJvUQp5lILr1PoILqN98t74xNSzIcYdq4SB42l81SL2nXf2u597S9WMQ0kNm3/BmuN+OxE2b743soZPmMDDCr4oKYfT8U26RMkHhfE7L3FdDy9G+A0zlX1xnjkfk3HDVNyL/0b28qLLSz3Fja3LWKn72cdocvuVt+Pe+qjqynBeRQpZtg+wjQimZBYaqUDN7u+/WwtK262cssPmAZbNKw6Y8/azYlNnYleMLw+IIlvRBAviH9+iBv2H6mvXFtqQbF46OjHmEcMGQjIJLUWncFOgRXuCjKyhb0VjyFgDW5qtaMdrye8jck8XQphbvyqGtJyCo7t8W+Y/Bx9jsdDNkdIzYNMROJLD5QfluLUmYB0ksHm0FQr/sJQFX4ai9Kq4WENyb0lI4LfNbhS0vYgdKp6WrgpDeGVvIWo1NOHvYbOWqhIdojlm8IJCeLWQNxFnuNnoBptSsEqTbPfbaQreJiHZApknP678firN57vI2eQb9yc//6pobaLbcnK/qJOGlVcOvLuZuKX+tXQBhkER9OQDX68TezOVRVuKyq3kK2OoHJuOzv/aOvCKC9w6307WwWSgZ217kRs3PPMv6f8YwBaHTmyVlnLe5KKKdH/wGDfSecYQZMdJew7hgtcAmU5zyoGNcAvQH0wp6ytoZmxkZjXerop39hBb0eRAQBcXPUpmSk1dvFSoK0yucT7t3tOOkkFITVyGMz8j/dAs2mLn7UFsC6ncTE/LjxlqtHCM8hsKxhsVdolmHW7zJw9bnZTv5U5pLdPTQdZQdgtSVS7UIv2EmLLdmXCHXWNyBWimGljH9U+dlILLhbqKxtf6/XiQeF/ahFhHGdg8enXr3faK3yfzFrFZdsyu3GOR3Ngj3pQqzySbXypgXAOfQzf+UEsHCMsABSSo+V74u0+cpThBKUuZhM4ymWjAV2Gh4CoUL2TqZKlGrgjw75jiaQCP2iPEyyJ78Byd+2Y8HXmcsdM5hESu9+YEAXMphvu5WOiqpEQc+hXPwiYhJvW8tt4NG8PBDBaB4brFzNnbvaY/aRHy/fUrdg5J47TUX03OXq0NTnm/JqC+vTciHKLl3bPJ5KUT+TKvAqjAvv1Zm7bQKrTEpgqf0m/Kwso1G+1Rm9dzpVL4yfZ459bxwSXgTP3UfKHK5ONabLyNGskd8lCMl4yA9LekeAoakpFst0Joi75MBKEiLZkvKoMhYNIJ2SU1d3TGdh/FFFWdIcUs2OJ3zL3hXm+K+j9JZVH8tOl7AaRarwp+zFOsanooNbmuHDyqfPAtjPyU3SzuMDXooPE/iSO6+5Ha3ZgBI8AA3tlG6BjRsdEX+YrgcB64YsXArO9ErAl6M3CN5Ta2Q8Xo1oabL6WhTjXTpixffWWK2lHtftopn4oAAVYAU9jR1n8U3OGjRzJ49d2j8idXensypOPJpIcUyObbUh2qEi7IS9qCRsUMJRf1iduTHvqUrfi5XmAbzZDJjxib2PSbWl/dXnKMRlNhqaVwu8i6i+CaEdJsGgwkuToCEcsykaFDReGr3WbI/ENzPaYU2wmzVe64+0zTm95p0keDsSdzUOvpoRYG9pICkvuJ+JIp1JPqmR0hqzZU2fjSZkamk7Av9MJb13wXNAAsLVcUvEdgSrBq/AW0T50Sb8CTa6mBRQYRZichRsjLV+EAdEM2oqSDfklbER+dFzYnqXzPkcjT1RKtT72Ajl1PrI4YZ9ai6ZXjUEpor0qS6YrBWYl7VQtYzEdS9BOcX/rSLuBiy1NBpvwc+xZAQw1BrPhyrdNzNa7w4egUSJAfm02fPee0QVPriBkQ9FL2mMPO5nq0g14Xwz2BbovBM3J6oBTItFUf/3L9rL5DuOFuVrCnbW2S9KjTM+/cH+IETs1uIAAf1l/VnvxLd594P5pc2fqPT+5r0gurk6q1rZ3lnJM+Le0Epp0i9Mxh1Wu4PZK8kwxerHa9+0qoR1C/TrHRUtnhqn/i8ZuA9yhzCyGp6HjS08IcSnt/JmXtAVrxEwURkv5IBgjv3M7R1CJT2ssVVYTrhQzYVbcPnfc6rZVfAhTXpJrG6DeED4OZDPG2HpQNe0DQ2UcEWM2FXiMPeSwuO3GzPWGcwdK8LoUyxnQ989ht4Ri7cjF7DM+DbimDaSGQsxLz6ljR1SerqEXcpQacCAt/TKFetuhzPDYAE5N8hUATEZs6fXWeAqcsmkQm6QKCNIHiADhXZAE5WQNqB6BA9rCsMNq4MV92q7iTon88t29wiiUyxiBxd9Y8AAZ/zcaOzTv56Pf7qXkGp50keiMTiDrkvgs/aZuqIEgVjUKlbcCKqgPF1Sjq1d8cr69vzTTYlk5iK+OxO6kfWzRSBY1GpmzE5gTehQT7x6Io+pdyvARco/hhXHXpPzIoVfRWW/g6ywOmGnONyr0wxpHT/7EbDOQ5pBvkxTqONULndHpw0tk8bG25C3/Wz0e/VLOKbyM1dOFgGPDbabpxPvqHuwZAC090uZC7Uh92Sd+/Ii4X4Ov2kVlaht1s9y/oSBfgqDsVSkZsjMQBtqwMjvcstqCz+hfCW6OYEkIiOcNYzi2bUN11CvLtKojS9WHkFkeYqgOv1KZ2XT95Mt2hfEt6r0aJqSxwlMbUSyUxkM9hRk59RJTbYR3uOly5WjI2rof5lYjQX/qbxDCvVEsCCukU5CEXS137OBO4XQODy1tCDxEZ9/0tfneZWS+3Kp1qGM+w9OsVfUAn1s2zQbulSWY/qEvh1lplwhsyrDGcUsCs0yFm+M/0DeIKZ9xO2TxW0g/OFuybOMKwOoWHzGMLeDOmybXeaxHQCROx9uz/FhGvyukA8PVTQtiu0+9jCC0oWzL+meyv8PTWRU1hoVmfpDoQrKHAlP0ym/1xsVDgCHQ4Bl5mbxy8z5dUbuQ3GbTBejISkcW1x6E+IvC82YFS/WlAu7KB0a5ZciVZbrU+3sSTT92vxxLkxR5FwJUU55oQSypYe96oJZaUGr8nfNL9SQfDRuZFSS/0mfhZf+kqv1p076EhIHOCOkj2Z22LRG8UJJERp/1uxO6pvXHW9mHgc9gjfE8R0xTF05uvewxNiyUonwY2UPcg39ohYn9NpLDvUCyCSWrubt/IzXIKus2IGkjm8fLqj+zCwOHlo3JDSv2XPwUYEPDCanR4k94CdSD7eCMx/F9m3UZdJ07/kC8hEPbut10iTMT5t3+TB5zlZecYYmLQCqVzwJdB3tgU8Xr9ReodbEt2AE99vOFWr/Bb/3x3eYeqcvp4aqr1e9M+kCw2i9Sk9xZWEcl6pGMaVb2RegcMWwkNAslB2gdQg9kJemIgF8PSCfJwrvLJ80aHW9YOTwmXSR0oaEA2GltIRUwrAOHlJqV4lslNWcdmgXCM/hNgo+ggRKXGZLXD33zS6Ndd4AMyD6fsSuBTnzhCWftP4tBiMnjwrmUtp6KcSRKfg2OZX78E+54DKzaOXgJ0kf8BuZKnRO9Z1hYcvXcDUBQiWdAzlPcLnKFuDIT8291Y6eYyXpi5xx2clBw+KCOb1TBNhS36EEdJWmDuloYtHQlYZ7lFoImJbmaFiPN6uf/0vI7FCnw4O8nbdq5AGejVP++VeEm8gkoxmjX6dGvN4ZUvKLLKsdysfL0ZxFcBfYgd3yrVmjePjXM+a7zKMEtqJByVqMCFAYdTb/lJHSPm1GPPzdQ3AFnHR3nsSlQu1pyF1TEjSQfskjit0W13GL4Sk1yQcB7K9gj+C6bBbmraE89b5giMO61ihvKzEbebHSeNOwIbrLv2i3NTi43V09kkjPGzgHBJP7rmTtJKqZ2pz/Xfp/r3NtKaIsevGiloVpja9vRik5j7kM1BLVMx7KfewjC+lsBa3nKC7YYqjDKys7LuI9A+RoSMExq+jY15/pU3VUlxlLuyNJlooEMc9YVAGLjIVIyvD0oJqmUgvh1ZA3/qvL/Jo7AM7b19VDcpfwG0n3fDOuuSfeZSHyemXIDUpmo+VeTFGREEP1aDInqx9r5DL3izlYdhcOiu8GJpFO6imms23SR7bRrldsX5EE5uZAZASkvn+4Czf/2UgkAG2XsD315dnn8Cy49LgsnPbMAfhGXgiZ2J86OeaS6COKACEXeUI3T7TgWPBUemnqf6lVl5zhAsmMKLMW5ahk+wpqTcBDZwgI1ShHPHmo36Oi83GR7HQQGEkcp6yl95kJUYHRizU3YxDeglvkQIr9EVRN/gccMaGSK9N1P19zL+UguxKOMQPDOQxdq7JkNXRXG2GDwfKufuRtOTn5CxztMRwiSfNr0FgmWRoytYmFV5il6RSIhbJrJvtCc60p2jTkOERrTgBhqKh1FeSl6J2kUrFkPxb7bntR3gbAPU8JMz0olwVN6CQkT1Tfdey7gXFXA4xQ0N9bpH3KifVaDiTqWpu1iryKezoctoHvpF7UW44xDTYazwpi3tCZw08gmYZ1Fiupznl1Zp+SDp4gkyOi5FIKHolsax6Mnw8d9Tt5swvTAz5rLDIehTR6xl3boV/n6yr0LXSwt4doz8MOFED6DINtHP9DQjDd7RArQJJL63Db9YaVJ/GMyHjWimj5g4qhA4BymCTZfpyjlQixEiGNhvJcKG4DmLesquufTVwX1rXF+F/7fMCwYmB/sm2DorjLOuU9HRMAeH4ElrPWr+CQteVxtb7a1ZDP6aDTqoQLM3CvXZNw7VNHNAlf4OJ2cw59q7aM2Js61Sa0+znP6oPIq6tz2c8VSqW1l/f0ehSUDAxNR2ucjw/ENeFTGbQsy4CUNZJVNf5G5FfD8UiYhYspyXI8xqZrJ8+DjayOyY6VMEeek/dZ73jsb6UOElS6saukWnwfQ960upI7rWGScY524/N9kWrzaoSPrQKQNX96jN29mJzgunlqllAG3ThGCnAppAro8Bb07cAqdSwGK6I9zwvHYHfijQYLLeeMQd12Q/l7lIa/IAasIABXrVAhVGsXcRqMrBDHGZeUvNiTK/rA/m7992KHO6AEd56KhgAP/NHwF8I82ye7igAD/7dAyy6CuHl0tDiqo/Szqkp4sebiyVWJZWJxTRi0laUuILXYa/UfpdfOZ5dQFL4jv3bUdQ9FV38N4ZGgtJtJWqQSva7KtQduKKUsewOfYKJ0iQMl9wDoKWvS6MbtlItfK8Nyp3/QYL5WFW7oGtwejZBjyfiKCD2JpIalwoy/5GmiehwhBpmsjYqgjSaRzUSkyjvL8x9xYNSGxPa8uZRn2C+dHj4Wx0VI2Bn7ScqCrxzELucahQDQOsKZvZZXidweJeuQkc87iFRQ5HQWCc+GDPo5vIe2yrpnBj1sejZmhNaa4dKSKQruVWdzBxsWJTGt5xKYrbZjDMETyOg3hKyqUbgwKGnsf8d1/oQerz/g7XipzwtM0gcBQyk6Wt7tIbOuZ3IsxkhEdvzN1Sh4Ie7NIkUIRb5ZAK9+39H7dZu3SpjylcXImUZjoV3Eaql4HcusbWEYbMhjauFbrbN7nKjFVmY8AwJ7zQdN/zQxKPdX4tqFd6D4/r98vCz+lu1Ui/VuyAbJZW3kjrlzUhmKMCsW9Gt+Pf5hTLuRfokd6rEPJw/eRpGH4fUWdI6lPobF8MPeLih8KL0sS9UDwT+e+57cXfbbdzyn61qnLFJ3NBN25eH0epgVYHuJ8BYk9rojcWDtZtp2erIj4soYXOIz/R7uAxBpJEED7LvoMNP9EBMfW4sXf7SpwHkecABQ0glo3fHBU0nP//F7P7RE5iLOt0be06n5F9lg1E1/6+zwsJvuozYKLfFEd2bqgdHd45WET9O/JYLfmS6YgDmVNvRaq76AxRy+sE4AB3jzBCJVQ6Ezskumnv8aLCpgbGN3ZoNzPzol3XJ3xy6L34/1S6+KENPK79rXOYn9cgo7Tm+7oVDEQAEcxEsptPx67XjpWlYr0VBt9CvxiXihQXMHxRTH253M3ll6AaEWfHAABs5KXg/OgNkMX+X5NCBG6rZEXCwqnxOvIRjcRIAdJSqiekzAZpfUVevXhdhCmWo//aIetn4idhIOYRYgx1Gb+q8mmtDfQy7uzSOgnGjRVH2uqM7Zdq/BEE9g6iiQ17jdi/m9LjxQtxk9ltd7AXjPzzlFFun0LRY7FEL3d1taxEMCgDapgj2as9jV5T1OR1fbf2+ElaDhDMg6/H0CJ3IeH0SIka8/FBLFraXaN6aNpr+x8ta33pLTqlK+cDXGrXOjIcL0LZWf5lIGx5UHLtG3tX2XqUcVhOjS9Exp1cMmqHxxsDiJPyIfXmb+R8lHMi240t52ov8cLnHUCTREQdS3b2bokPwNR41izUC4FAiJ6kl2400DxWVumghl0Um44WO/+tUGVWUFugQfgFoELaOPvVo0qJhiPWzDlM8Q48VWXvdrfAphAYP21vkVZASJyw/nk7FTQ4X3oDffYmQVNex8IevF8itcFd/Gw72ZEq8lM36EAsKcfn5S/DwIMV8jf3XJX0zJkXjT5argQpECZuYj+zPmkZGjwXtOROgM86mqxsN8jjX4Xu6HNtsgjtg7wE/s8pr7WY+Cla8gPPJ+ebE6ZS+cz4Q1L8C5bjk6YY0F4lYYEOcgPw704Qq7SylIRGKSj0FLrNfdU5+naKqUaga1egeQ9CPzE+D1Md9jAc+7e/s8Y8zO/zPaDaixV+clBHldsIfUBCpagTagAACCgRmy2YWrfnMbmcP4p1xZTPrx89ArAQcP5JBbVX0I62D1X6xA3MxVKR6VKapxgAdpIeR8A9b2Wga2MmaMP00zFGiaE1KgrPz8mBKCU2n1riNBMQIUI0AfT1cY93y0yq+uBQFXx0jCLJ0T4nK+bVNoBHVAfVnfhBFixxLNQOybqt0PSlagd3zo/DNFjjVlkb2BJIFVUAPDmyEVpX976/P3Z9WAnXZ575LYQnG+H6G3BsVMFn6uhkyh+AUUtwMH93HnWxGIXtP1U5JfmK/eCW0pfD8QYRgPG4bSyj5Uq6jmmlf0wwtc+Gtuw3gSOoTwqkVDRnvisjTCz617MW9kEf1/UFMBljaP16L+atiPYHyD27OGi57XzNORRE/7YrfaEUVnVriFuaIfg3bjE4IhtnlA6Jiz+11gsrKEDX+fNZ4HqraXFH+5i/SQJU+VS3tnsbM9WJvkZpNey5oBJ3gMBHzaamDNZ7z/og+a4V9IrGAPxRvmMVEHHbc912dGOuTxlThNghiq6XZOdkwG/p6pRiswb+bP3/c4mY23UAxB85hyUBxMcY9YukBORaVSuCC8bFVKgDXZ37mX8irjlXR0MboY9Iyy6tNz25qAa593hxnkh6zHbzoqqSAOa4QueIttgs/WvhCgFHWvT/lxDntoNunQB80YpmIG6pD8XwtgAAcAy9JnKpvzcQW37s53FMn5zTFIxzwKW8lgmj3Mu7/L5tPtDrsEgAAoZ0kg0RmOIaJedTAFfc2hk0TTOgkYVXHhI8pvPTqc/3SAc7NfFkhkXPZxQlEogIs5zQHkwiA9XHvIuKn9p3dlMHmsPBb/QeQV+rsVSpjiSDoyXTjthYLo7k+zA4NONwKkOq3i6jpXbtOm/bXSsYKcn7cmLwaXXf/AAEtRDoOOXbUFKaNp7lRi+EHTvqfimbrG1hbb4o1q+YKBr972T4HoDDYJ06rtMtYhxkVIqmLZgxfdYOF0oJNglxaXPlXSm+adCu4vtJiT4KUa4lC+rUx14FgH5y+Leg58gqVdc5GFY28S+1OCDOy0eKIHaCxm1Pf7Myvwve0fppqKM9TCpSxYiCVv53I91dlDBzvyPIXZdRi/Zx/2SjPMds6VNO0BKz0lEKnhnptLAGVOoFAlNd5ywb6M7T9tiCJTLa+8q1NgQ9F36I1RHMU4AqdHA9c8OuKYSrmplv9Ndkyhtv+dj7bYCKb0YACefxJbjzjawr4P2Uly9B0T+ru+yGZCLI7yMU2YxBVqrUxbJmjpT6OJCkf3BRZyj+Y0G/+tUVl3K+gABNI84I+esoWF9UYB9rz/JiHH9dS5xCh/5haSJV5nu7XGEdV4bAlOCK+psFwcNSABK8er0lHseQE2v1EkagZmx4MfOBU1HMtD3S4aM2dK6PuxJfEfEgEPUadz4e2am0Ti2WnTzMjN6zVytYXHqxhcFPbytcHkTNP4eofYT1DGUMzjpWdBlD5QYYygzKzgbnc99N5Q3JwWnercNgJm4dbxdk+gfumcKHDivD1h2IGuLZCr3r+QBpyg4A6tEOmW3fNhSp0FraElVkB1NNs67ZC6OENcoyLl9OwSwbeBJ2alvZO+h4v+aWGvF+ZMfqR3GRBLr2AWzeOZ2/j2pYaiHGI9kxULMQKBMOT1wmE60OcKsdvJtqHtzVS/iIqMUquchJC0v3OMhbOYmUwm1H86iA8jieXYJ+b1AJr3vZHk67hM7ft2DBF0AyGBe5rei7SRME0bDYilNK6sig8D+yb5vtNmU7o5c/+E6jWQXOORhTS2+g5fihPRDnNo4WiCsVer28yBkwu21yHthaGOtZX7oJPLSKknfOCUvb7O/J1eEtkAziyIGOajuutq1nUMkD+rigbNOMPhJBty1d8UmgzYB5unt6Fd6hY2oS1B6xqgiqEcGjZ0tABjBT//hGxU9cDYtqll4dkz0GgjK9lfalBeJeLZ4Jvy7FV7FhhFWOADw2havPQO1L71+AYvpgZh+6VIA4ZBhg7GIYZwX60ztHFAhmdJ7HxXxXWk2IZ8wIqAOR1Va/AGzqUjHIu+09XbUQOYTLBSR25OKdh1GeFNNyt5FZjWrpYGdA9nQG40xB5aP2crlG1LBqk6iZycjrb+gzvyn7z1Fzoz0cWJI/HLEUARH6JF1Ax3KU5aAW3KBvFzQVuEqo5fmzz99TOeyC9pFcST09PS41z7oSAzDmgdHkgTPYYjmaceH/AcD2Hj2YcXngqjdIiNClIvFk31ZCv71g/x6pLgrTJQeqGhH3o3DBWo2Zf8TneLyaiAHBIH+Bq6o4PsVrHwDCk/m2umgVNJEzLRD3p/XkSH/QXX2fuaDH3CcByWuo6klTEM8xn0VTv3Ch7lpQyeG78MEkE9LthCP2HScK6H4fUECPRU3QADMp08GjwaC3U8pzVNX1LsBCEvs8eyZIr+zRYdsszi/NCFSF0SdNQZ30FW9vhsXPLYqTQJPMSLeD0KXcL0MStiQFgvTQqk8+V1tEEJryWpiMIWT6T3n1d+o/wXkDwCz+elAQoSfa3Wj+DouFoqHmfSHF6SaCbkxXBD7X5RiAKuXfxX22Czb+GtSYEbPT4fOMF3kLQunJqD+wdyirwCFUen2eoF7QE9Bu65rhxYZEOdktE5ZoL4K5w7+tJDp4+VmFXO6tXRFX5Ua+kzLRrfo1YfXuVMW4A12j2imYj9gQYPUWCaMDHAJHToC1G/GfLP6wuolnCK5b8Z/0/t9JdUNzK2/tfcjUuqahnrIvYmby/mnYdgxm2uW8LtkWszpN1HrgOIDzIAQulFaiyoxbkp7+zpEzyRcBHudRpP+f3e2aXpenaHKoVuE2uUYcCigs+pj8951Wy2Rc5qunBG0CtYr0g7n/UfHQMUYXf8RAgfoKgBAqpjjpaYHGVXuDGNPwxnAJkCVo2vKlQ/tMpOOdmrO3If2GM+mcCOTLYUtGt78YtqbeTe43XEd+23qFPC9lIVTCE0cDkPDX/spOeJMsoA6nPaZqSpkoBJTGEM0/7mK6+8DEJEpyOp2xiqPpJBZf0Uc9a5XJaj/iwpsqRyAHgV/zFgRyLXAFOoimyT38Jvl05sanTr/CwD6ooS+fi0VROOA6Mb9wjXMcwrUGdWp2t/+v3EpInSks0zE00vxjwfVE38N1s3+G53ZparCmJ5vzrYz2RnZokMoru4XvN1DL3d4YNJNb+xkqUnVFqoqLKWHzaMfs4QMBJymDQpWGI6BkHAUjB+FArXJa+0sQWbyGW9Q3YzltiDqE45EwtJV19d8bPvJKb+gGteXC/FBNcvKiLg/iyQT7RRPLVcvnYTMpzc6tKEeASu48/C63Zbps1W+ayOrSCrSJIcK9/CvAZF7kQhgy5gAT6Oet+Eq8N7zk1zjbF0dPycUWMu+cFHJ9cGeueqzLbiG6sO2YiI6dVZYnswghXFATnb3HYx+vKj9qlX5eQ61a7tWhlGrkiuMa+OvTPfdHB4m9uaiy+GW/ZlwHzBsKBp4o3nC+DPmqjGtp30h1LhOmuykSbO05l/RahLo5yursQYqkQj+pe/tZn802VxBngDBJnwmyeYHcGUmNifdmWw40LsaqrsrpNMFoH+rUPItHvGzxCYn5ydSyMmBgv/zv+pEdR1Jpl0xVLBv3pQhOlxYz9WSZHOfwUYit1AN7pDKuY29JkaUmNJRzbOuUCCG/ALs52SXylQMEl5E0mebNMjNBEMg35GPNiWG+U45x/F9m3DuISdM57f8/bBbtJWN/Jz3vBjCAxbK8+CoNQAAgdTbpG8ElGPK0h1CTVU0ZqHY8QSRVF2bpyfFl0qn4YVO+e72cho6jHH7f3+lkIaybs07jAZCJI23C8OXezKsG6qBQLagQLToRPasjr1LHSEE8YU+NFd5KSmu8wF1ixdCz4U1Z9SLAGKDArJOwkefkyMu9VVpliglHLYodHcgPSVbBjJiXgXJwoS96/WSCtENbwLaG48SNHoDDzl5DIOVEK6tfDJn8y4Hiz7LkL1DnJ7FiVmwdmT8KOsQjl6qkrjxG816PPKCxBr6YW2L4icmIgaMXw1QMChS3YMaV/1O2c+rA2qEa30MDH+DXk1NF4r5c+Elw+MoyPeu9R+dD8tPW2PshNOQtm0fOtWHrfM4dYOfKxmGuf4o84RPrQzMfGIUHHihOUljmxBRqXh+bjI46EgHK/o0IK/1z90VV0q8zDn7mtsPZguWWhKo8OfC4FOGdp5URDRx20fKg8bSjf9ROsFft3dMcNGUfXFRb87ERrlOVZkNViBucEwe7pXXyGHiX25FRxvh9JCVpXaQuahxmKbJ2zW88BDJTvf+9sDLQu+YWem8ORusgToeTOQXooYwYFsD40gRAkRGCjPN+bDCrh7K+v7YccPmrVfD09GCmnztgW8Vu+JXlRENYEEb69OSlLPWZXHMm7/1+NmaRqjlQBOyFcPQ6T3TGcFYvOAIxxwDkPizymZb76NjeZYyZnSjPJMuZF1EUFIxHgqV+EZ2yRqUDR4imrfVG4208QAFjaV01iobY7ngW0Ogo4mi8wK+2tf3n2SENXF+Yd284tKWRiDMeu7F9cEWoXw5Q1TAgs7+GsHI559SJ7WCD4TmV/EADbbPlvnBoUyCEmk3bddIT3RMy11mcbb7gWAMFaXftMLXCpT8weDW0SmzhLXwYKjc1piFHma4Q2oFhLzz46G203FZQmmwkZ7qUIslKjZQgwDzYcJDo3lVIECD8qeTWJBgK2bEz2EIse77i8y30aEzjLgfdgK5EjFmoyWLjwMT8+4zduVX6nvtIu4h3u0Smewqc+aBYBfOr2qmQPWTg8P+j9QlkJ0Ja258rYDXqtLGe55QoJtZBOdmq/tjJJl3c1yGYKZxTvz6wr9VDGn1ySZfR1phBCEfmU0qx7QpDu8dpHhoMXfXe8jPWNWq+7HQhntuYB466BP13vlbiM7jNZYeCBDApNbEK/CSGbMR07wOFFvTf6QfYstBA2OANz3sxOJm0a0x7px6eX/TfK12nD3CUl40C0yQ0f8AbbBmoa1C2S08Wc2dG2hZyvMTL7zRfYyCn2R72SNigaLO8TrbKG3awlzKkVsTaCR6LcI1tFZqnGGqG+piHFqMxurr6rNx2lBDxo7qfo6in5J8GSTMMZ177BUO7+Kg0FMPHkYgkJSEDjd0QNEYNC+C0yJAqAtQBeao5XF09RvTl4DCfNmDQhwh7k0E64MiIznTTSYpRiLZrozE/B47gAG4pP/DwTHJUXYlhzX6MRA7mZQpzZXhuDnKuUneO7twFnC9qaHlU8cx90jO8JeUl0SSBs7F5a/J/y57R6USJuxlJ+ZFV0iNIW37TGLtAnSjCb6uEuvfUkmrGuewdstfdOdgF3h2GGhOMARaQxzBuFA10Rd7AycEkqMVt+OA5ugn47D9kbDDs5k2VMmc8I9DVvRdbcjEykB40BjXAJMrzYEE8nyoPbLdGp5AALS5lRLhBoikdsygswuxVNMCQy8aPjbmSqHHEatSjV0GZ/D6D+Gm4ixkOH751sSDr0cDilCWcquQR1pfFYpk3XyZJ4S9Ue3E15VuGDDasd+rsE4BP1BKWW813ouj61c27Zq8glokii9J2c222w/H5/WjMZHRunDmf+LZaHo1anmTEQie9UZGephSxiubabChxui1iRBp9NDHzsXtrveBCR/T9m02iWLIC/7gJE3D68+bB6FZp0uyid2lKxzrag2RnzLiGNypx/fHdzMN+PHIaFKQNXMdsSAbHgaY6+Sn3AmRArsckvrLLfMtTrLKSI+y0tc25l3AdxWuZgjkAQm4guzc7CvhqhP8Zlj3R4iOnjkPsD0L0Peoc7Rgens9UCOPAhSB4HPi7T9mRc65tcBVFZ/DSnqd/r4zt062uHE5ahfralkPmBbd4HQA11kH+GAL062dBDfIjq3SIcf1JZUwOKje4gtHg/9t86jzGf6feyeEjWubpgAAOmnVCRvPP7Y4BeN766oULTUJRBVGKvj5hJjyUqoJlUeF7JUuKso2pyqETQmd47Z4miW3zWUKuD2UDOSYoshKJuL2eZU5DdJ7t4lrXsNAHI/7qZGI/FeIOQgoWkxXnTjKWaj80KV4DZTfNULwISDJQpkK8NkWCcEuR/5m/n6NcdNOOEm1j0CJCi65b1nar6AEm3PhhA/ZJfzu59IMcMWjz8yqAqiECYymk8CRAdhPwjbaTfKjwGZHQePRGEwvzbGGn0ZRM0tTinqEey9MmcJltz9kXOivZbIpJ2kzQTtXRpCzpubqAQ9di265cZe+mZbRtzAuEPyTPVrCr9LQPtoWHUgOUpnlCOdYWeFoklGDLPQlhQSw7FPyIju2bu3Q2E4FIy9zH+bdbRZ7pbP9LqrUWZwoochmiuyo+PK9AImAlC3XYK1NrFhpclyYr7YWq/cmEoEBJJp4bt6vtxIPRl57fNDAzpBYm4muwLCqBF+3boQJzZrlQKDLE622ir5UcbV46ArIaK0goxR+THaTYZnwFmD/cFphG8orT1AVJSrlL1Qexn9gno60H8rJIlE1G2TgbHzTb3c3Qwd9IyTJCFr6QmFJwJZjzqjDLkZ8rwFD/VS5I9dT1FihoF6VjB1xKETdBJzkgkiWshJfcvLFoBQ7V/E9k8zC8PbjfM4t6FuzwS48jedNa3S4Cdlp4UT/XbBeXM/if/7QFuvYymHWABr6DhrbFduF6yCyr491PNxleVC3o/TonwzLVCa+rJkJEaUX8kwYUDRRYS3ZRkPRdzWZVqveE2eXf2Bg/YT4ptT/7i7WC/Ta1QfSt/9wvSOcxRT5QyEOh+u4uSAMwNwPXwRHgHnE6VnwxzwgyKqfAP3CUH4O+uc9sk3akPFhlBkeWilJIa2/7Zpkk0zu6EFCGmaBRemUcpHIVN9dbtZBdloKyEUOtWI/GVKBNtD3TK1mUnTZwk1YBr8My+HkvbwIhlU2t7aS3FolshMqc9IxWKy6Jb4moWprnnGbun9z3HdcRiaAPS6WSvUzmXGk3S2Aegi4Ex9Fdcxin7jgGo3Vv3BFYwTPZbeQ0657nev0gt/LEHTGIyZlxldHRFOOJfKCnS2d6qNOu1iO47oMiXH3339SdSHeUiPUqNpO3KFz9K/UaueuTtvhGq6A6a9EtGJuxXoXn38QBWwYwffuX69EiBlR0RTcA4ifsFUn93ResLWDeYt529Q7DLkKGFFG356WqmQYc3jjqC1luL97TAsoqtvv4gCFan2u6zRCnJ1YXo3YyaKYTcMnRGF1UMaR6qZYKo1LW5hUXu8Pq1Af0GNx28/toKWtG+bVg8A3GjNyVhvbXh8ZOhubxOBiSkzbA9X1PkvjSVP65sqQUkHJ0iGU3YCtHXr+MZQTZAbOQhCmY2b5fgp2xEMxnqu9iUXHVA5Dz6e3z5c9OpcReFh8dBPgxdN0ASkM1iHBUHkMoyNVszTzDyG0Pyic+AfSvfMme5OWnn3nTsBg00mMfv2pl7C7PO9cTvvgsCVruIjKKjBO27D245tjj4Ljj0BjtXifNvVcFAQM1XAdnLKDgPP9VzuN2IQzuuP5YWDosWuS5bu1O2SGJW38KauRt5VY76GUyc3sr2//+loVKE8fguOySge07OyfHgLSN0tMczzcjSbK3jn07uBuYGUsqN6ADUEaNB/Dbvou2gm/HglFihR8DrMw14qa/wjTIzQZ8UOpS3/BH076w9N48q2JybJiT6CuZ4j7Q+hIFJGMmotg6/rgy1VGfTt1xRv1A7Rt5g+b/IkURVqXLwTqMcvXzRMgV4fAsBlFmfSHgenWNX4eMl9yoO+r+T4AZoeqUcFncZdk98hwT7Zz6agYh1+BkjUzSy6jUiF8SuXwVtwc/a36o9IuI0jd/4bmqH+PhEuxb5sHv5TIvdhG1sRPAbMN8cQRhZH33dVu+rtOqfLlzyun6vK5CHWVl1HeMwJczF8o4QPM2XOhhQqfpUj6Fu++bVBy0RC2w5Y9uSXIHLNOxHA4yubI+jezfA2bWnJBgwwqmt/JFLPoZ4NVsSUjHI9oyA/bsqCog73UE1FRO34ebZ+hfyKuFpXkyarjmmZ0puAQ4/OQiBCpE26qY6FZ88/1GxuGiSvZNmH9d1JbOjpKnx5Gd60eyeiEPYTPjP26ER97pc0rHf1edgBhxkMoSY9LEoUcjX62CKHT7Qt6zP4v7LG+mrvNsy7k4ydnl7jX33Nqf4kqFN2Iydh7uxj6EuYGpXQHV6mX6VCGRGl/t9DWCpYcfJFIQEK4hk00aAwjnGzSox0SWYCdySKHmRpaUxtSE4+QcetqjPhZAjmdm4eB8XgBoohv97qOt/Kz0RlhQkjKOOP2fChfqVHGUsTh/nBP8t/Twm/1sAU1jiS3T3kt0KGHP+sFlX3bFJmTCOrHa9uLk5S8AhZuChJTecMhajymiAbmQDvRBOT+m8ftPG0mGfNHZTkeZh/0z71iDIIum6W0oXan5ZZE6aS02AQMBlhQ9Co2Pz88hx1G4ugcV+X3/VVuYMzRQXBl0jcknyiD5CEVU6oHLpC+w6OmtybX3KVxJt0G/Mq8J6FrGbWkyNoLiyhxCYuXP64m+q9QJPmVZ27LFTO4ZyJZyXZzNb1fM/vswahRTCoVaBpqxHoLEsnA9m6GDOrrVwAzi7KojMPN73sWJFnfyNi9FM/nU50JwrkaVkQ8XgSonsKCbsLnVymMb+7kdlc+OPaL4AttW7z3PNNg7P+wMVdf51ar6oYujKSk0lM1BhqAHCtw3DRQuOsXFLr/AkTl/q9Ryc/Tc5SAjrCKA9bQabpdPtj9kfRwM9qvOJYJe9LmBuol5gq7DK7csis70SvGCBsO3Eah/cWcHdF16HY1+7izNjhFhSxIv31YIb+ApkXgJ+KAKJxnHwt9c4orzTid3dFxjmjhHS61qWoKBsGk2azpMSFMFRx10k2JM9M0yRja2zM2cQ8NFHGcxLee2vfxuH8d8yw0IVRHVEANElZfNjw/efXUvJwsGKPLBiE1coowCgRCxwFLyinziGyQqZbQJ4C5GFqbns6EBvdVa9cy4Y4/+opvIqVSEC0huy7Qz8c5rLpkFl4FybTS2apZ3hSJPaYVwY2i18xDShAysuDIxhqtz4Fmdx2vEKqZp6mxNOZE/dpUoEz5f733vp6603ci/V/L/pcNff/IoDzr4HF0FUVtdTSGs/LV+CdSOZiy5aAYDxhZidlhitHL/op+txg3x57/kJNIItHT0bubtFALH44AzfHDIJqj2SexhoJEMghkfATzijpq84/XkNqQLFCe6KsJjeTxEGRVfQbrGtPWIXGqIMZovrHSInrm2N3k+/Sef+WV45XYAC/pXNLAcWDj10uF8KhloomU6SgTpMotENiv2wbq1oN3UGJsiVUfDgW12DmnzuDYQIjlhIe7RXX85CFOEydy4fOUwdZjS8FvLMkjg41+e+qe63Ji4487uucm7reIv2K0IfSzzdZRY6+2wTfDOP1AarK3JKfeuZNFlvANV3a5x+FKT8MbJAJATvk95RPtb9MFOXHjeueyPkSgi+VdkV4D64bcV/2NFoxNk733lIeeEg48rJLCMpR3nRCGM4mujjCd+ls+dkzVCE5Lmk9mmRgdG/kl00sqlGrS4TV2DTCQAMSvIddRjLyPkqguJE2EI5DxxGLJ2p6oMHEB0lDQP33Iy7sgUZcvJoZZG3h016wjjnY3+ElrluHYvPzHbFUp2svQKEgFKIw/xwj9MPPgLQt7CAmYEVtdC84NOGXFSZ5Fzr1vdmysSDYlBwXUz/886t24qSQAH/mStcpb1Drn1dz3tRKht7d4AsdNgPAZDlYFhA1rYaMweU8H/82o+htWeXdGzqGjcwb53IyKt/uNxq8ma8h86/kIwINJoAquffinlQPNfiW8gzIEdiY5bNQHMS3aEP+NH+5rU6pbtBT2RmR0SzM8kSRz7AlTtk4mOJZq5dsvlvgp12CpJ07JSBrhhHuTMchZk2dv8eBRcYf/TsUgkUzcpaxBjJ/5Np4iwg32eoctbYBxuw0j4VNR2g8XgYkxd/8HHgqJRYP7gJApJyvSLvpvRiMzoD8aTBxo9uZneZ7GlQFmqyf95m3cCvikGN/uXKzP5h9PnK/2oQAZzfsYPiY/5TdBLdcuyOadM2qLNWbwsYg3b+jzTraDBgqzK152EAdgHPkZzr2jplqQeffmuZiRMZEgR23/qsdpNanoj4t4X54D45UgGBQ08sdqDuW0MmJn4CCo609Y+2Spm+k2SmNwqXNRNFIwSADDbO+EgDP7MY8aIW6jDmDNd6rbrGgFVX4gC5jzk91AfQjdlbmjqIhLrb1ve15dwestL5G2uI7fhjkGuQE9lwieAnsXCJg/NvCh7mjPfKgSoVpyIgGerHCtiFWG9nQJWfQsgP9jMpVglgTZmrHuRZoCYJAw/7Yz/3fmTaCqT5/PpFhReODYBJQgF6C7B1Zv01ceUpXAcbki3B8zuu86QzvJPKthE43J/ws1sJadRDDelr1m8TqT65tt54wWzd0eu8uAGuCNgyaFLDC3L0Cyag+KNakbskyAv1KFHY5iuxUiAf4WAHTaysSOqTtpaIbv5oHO/ZP32yMzA/8Pan3dX8O9OAe4PhjUHSdzl1A2zQybkE6+45QJmLqhW6tU1u7LUxUfW3TXBr0rj7MmDBoCTvHKae8hFQ7ddPSzBVNM33jkHuoXZXM+/7LylN8GVAoJ4c86vyQRwXmUaafs2O9UnbVN7cp+vSGvo+0vsPiEMQ6D6dUEAeBnHdsNmMLcK9gHWP92toVtC75o+7EdaXu5gf0FbKBgPOYhPUnB8fRk16Z8QPLr8M+bNzriY3t1T5gLDGPefiAHmjRxtDe3EhDhtXTub/cToRz9GQQt0t6ZEAQLHvfhJuZmOUmzEuYFx5ROa47c+kQN4G3ladU5vz1RkqAUQycgv00zUaRjlNMks47cqGNlOhDpimQWkICBSmstdzRSnyemTyJ1IMUY5o/Ue56av6NNuNx9PzBBph0ncFiR4kF2sHi+J0AGiyk+ONiTwyzLxDO4FG+xiUwFwPfXnCKEn3wYnVx4ASgkgw/llJy1yWSg5C7vDQHsb/sWw5kpTO6vLr+a7e26CD6mT72W6u7fm9Mv/S+Rs2iCzb3B78mqYVxPh5kS+HYA8AAkpnXZt6I8bvLHEIxTqD3GePl5jTOhIcprNNfO7qKBf70JvI14n6gZq6O4LBgM4/QPB19EWrwjm/ll/iy1GzP1YmeHKhjMUqAvTgNT/ahOY5fzzA+mBnUUlEfN28MhUZLrBGTOMfa6KDFX2BOcfewG/1LBnAd1vGiiz32SWpiw429PoTS3i+98TnUPBrm5aNoEPJSUJn8r+w/A15pdMRATTEvu87/cCQeRqF1k2c5vBdn/toFXgAKjz6P4UQw1oAwUEVd4IdXj02Xag1zUZ/YpR4E0fX3vDu3UZqzs/T+M1/00DFH48dt25FdHR1NXU7XzenRIH4rejHvbDHQjgg5rVazysprO1hcr4aDAFZmE5onebgSYEwA7IWeLGodTfODcy20kl+yFOA1p8aZPcLRc8Uhfm95dwRn80biJIrLmMu3iU+nAZYQtrkYdvGtmWFLUUWd4eHLtnOfT64JH7W3BJbmrGaR0vZWFyO5PpaMPymm8J2mbq48x9z67ECuy1ixfBShV6LRk7ch8OaNqn8Pf4Px1HSS94xDSE1eOG4+6OajTZTrCz0+WEp5WynXimdYtvm/d2K54XPSpUsdfeUcHx4v8hrrGYmVaWRiTYFlXpArMfKlBOMA8irmtmFzncNzcPSAL24i1HGTIkSOLIWRaVJErl3c900/xiyqn8oBebn7lc25f56juaY3Fx87oWvDN1LQ9qMjJSHcRIdhp019k/vyLNK6OLfp7alIAaidwrD8pRUe4fQc9xhCLs4yzeP3D/fpV+aFm4A4dIvIoLuxOJ+xVwPjmDdjC44nOFAtrMbG9cC0SfuJ3b5wmU/dFf7uN9l4tWb4mkN1MtYHxhAF4klhAS0DndNXeC3/dut5G9ZpijSaoMrmnCUktBtA6hgZW5NIk3KL59XsDhfIYh8n9xu+uA7sl7+NQvonKTMB0IiQR7WYQQlcunn1QmqztaG8WlFAcF+gUtn2WK2s2L8oeC4XTqROOqj9i9pLewRScG63twW8YXSk0yUxvDRKrqCWhmOcoa3cO/rSgFS6+JAroU2yKVsM9jdmEB6nx8UVIOTQVDFISeuOPapGixieLHicGn0X1ByVQ63VdxAEh6yEokoHK4kOKp+Xsuu19aMlMi4QcjBGeTgllDShumlSWs9FSS8Kz7WP6rDwRWyp4GFVi7Gu0CmU12C8N0izaXd5slagJNe267WIadYBV2W4l+PiesvE1JMPZEBra4rCQt8U0ubdpNEkOiSD7Ocf7K+Ga+DOVbBRfFScHOGgdnlkwOf+7isbraFZWtqrSZPNCZ4tRqBDUjqn6SgReHq0LVdCDfkW9IbwX0XXax8TOBWEPsSRdgMHY0Qz0zsV8us7VpV+Ag/hDHzOK0JaRJ550qImLsurUDyM6TZEbnj+VTwJBxdho84cpHgGrIFMQG7tO39BJwdxMdB7+2JX5IswJtClI38dxhiqcIcBNKSAEOjUwSW+L6pKIQm83BQU1FxpF/YBVYnjT6ELGAc6a96l3l9zPJcXB82YrUHJF8hUdScnYycR9MtDd6q0v08RdWvz7wZ130F1HR5KHUpChL47+4xUnoav7CtA+e0ghObS9xud7eSNUw+K8k5pSys5gkFKYK7uIXbSXoHAOicIiSQd5osvxr1ivQDQiz44AZqNoW/OlZkGpKfNvqWb5D7F/1w85PK65mhw8m6mJMpfhlyJy5rHBeNc4QM2MCGolharXVR6Pvz4CuCrXrgN+9ctSzXJpp5OdkXbYGuwoxGahTWTBZw5q2bzNCi/qGzaH1gyyDBLjbWe0FozX7rwvWu/Ms1iDp0hza1uDNO+8mbz3e1ltIaQxVv5GHEZ5r33GUgj/TYN6mrJH8i0dWr8m2dDVbzX2ctEPKDo+QB37TJe+xvstSI5sTRiLxAXntTg/eXM/rjSd6l5/nzELbbWY7DT/P+69b0s8ZP5Qy8GHxmDiZiHwlybypb/2A5FxEx5StJth+3r02gJ4XCL2lWT7zHz/ONB0kXhdbT5Ye8kqCRiDJWxPl3xclxaGEPiNo7IJdRvl8exohfYKTZHgEavBCYS9Q5v2L2ydIe04DgOl/TgAHQ6KfoYay+GCsOe0ki3DTxbrw4rjag79NgxlCcz735XagtCtMzjqHWg6XB0iHgjEHSlieR5J2HLprI2pCP+kTKYqvf1W/xJlk9YaT0v/JOgFUzuioJ+LObnZqPwp5PoD5VWIW5hNvx783cR9OJv8bhVJ2dvfxTM/F9eOU5yknkiS1nEEAEOnnmMrKyiEkkuV3vwwBFe908BKotm/Y1Dj3VoYe7592MoDILBYAkQCXFcvCjYtKlGKW4iGSHjSNSEyCr43bXOYj3p4H5Xc5a3oQKZpfTCjEMtUaFpfVEf71ues+1EmoFxUeoXcOT+jC5/sIWYdUBW6pnN+oMb4H3yO5Idr5LLwcfrI1YQrPIcdVQPdNWnA9K6oOgcAc/47qcsm/xwLR80jq6KtHRUd+axm2HnUSyQeBiwZZABuu0HL3kV7ULNnea8KS8b4cGwhCZQq+DDCEXfjfr71aImw3iutEMaHgr5esY0cjfI12u4xC9ntsF92Wz0yptGypFWjpHvyFERHbjHcOUdLjBqDO9O6XCM6sd+HPGtB7cb1zYFPN4uviKTeYWiqKR5CGppr5I8w0Oqm2pwca5TVOMDOr7qzS+Vqw2Y2df2JIDGL9v94Wilfo/ajZdEnD+iCiR0yd1vxL67lROiRCxfv4JvOK/Pe+ht9CgfyLBSTV6N6N8CNpORUAf0N/Ptjvz2f++/pOSGDzdnhujZp6wN0qGOPj8cRlHWWcNt9JUq1NqvLk+9bbwgdcXqVDrWh/93sHyElkT9mhlSwTGKK1fp7sC7jtdzYFHS5+PMh3xkyJ3Ly8UfI6RLQX2bAtpupDrh8eWPY6UbEpmenFq5WMR7UF6cmQ1kN3nR/ynxdlN47kGI9F04E1hyRVm9vhQtkLjS0w8fe8adayNbFl0NVCpQJhKQESS/J8LiauEiwKm0+lf9pGyGZsrzFrY0iGh4m/Nb+6gTQIKUy6tpQKWHro1Z69cA9oQl2vlyU3HzYHnkRdOKNMbkfMsw5Mb0i2ha7h4ERqIw2T8fAf6mDsq+htK6scN5biERo6o+s5FnsEbF/b5XCp4Ioxgp0SoK1L0GX2d9HeBTBhC3NYOZbDNzkPXZBYoc3lhoHMFX34pvIvJfzqyCfDyNRrCCO9ZuNbN4C2b8UkrSlbc90oyiBkni9M/rBxWOvEroUuz1CZ9ssijqIbmqrYKdLwRrqaOtLAeEwmpp2CMLf1bNnqzlKs93RDzHnDY/KOJS7akfqGgp18CfVoZNjR1LBrWWyP40Din4pRm5PuSvxDv1ETKJpN7VgflmiZ0jjSaMvhlaKoxIlORmKYkPuBi4x+3vMrCkUnfC1O1W5lMB7Udsxw/T5F65RIIj0mvmGXKLciFU5rIF9xri2dM356waUGldbBXawYv9kv4SdyPTSVbl6jaiZ9Wp//A0kFpL+dK5BbxQEXakXQCItEaADOVXXDrRhn9DSxKKy0Da+YR316WEvd4EQtHwqT4IK127/JwaB9L0s789L00ulprMik6//92vQMw483ERAV7P70tSIg+8EbcXnv73jmP+U5w/7KyGMNlk8dNyA0uw8bvI6J6OHHFKkBNn9IHDnz7rj7FAjn49mdCWv3vA84ixl38hG2/soroGQZ0exd4/9VZn7zQ2T09qy9AiNoicfcDeLOLOyylyxsHFAVFpBP35EfDmHgVwAVlh7QkFt27J+smCEZYarppj+/YQcZbkZ2m3f7G+n24dljMyRQxnXPIcyGoW1aPRgNbQEjYE5M1aGNhmCsBvUpee3l3zKRRJqOwUGHghdJPeMFFKSgbPLeFRaXpdSD4xqzQuhdI/tl9r/ki7dJemmQ54NUUcazbQrjsitwJ7O+sf01kCVv4HT53vTVSlaWj86p8raUYHMbq9WoamCynCEdoEr7F6GmIB6rCQnIPQnhPgxiX0MlHSY5d4pgO5VknBevC7B7Qg3fBB+AsK7GL5WPcWK2PQkw/QAs9lvH+spJO7cCfxnmqV03wLTETsk4jKuC387aYiFK/sAesotuXHma1rXewfZv576RXdQ9t7WorKWA+ZRwRFVtbI3BRZ/83d9Tatbq+mlCEI/xCwpGRKzZgoLR0ORxxFFKC23+A15Mm3jUwhCFyGhzYoWj6IgQ8lCxhrnzT0n0rKXgPrwTAqJ2AKv0b4fTvBIy0IiEJSGQvNpl8MO2wq1kl+8AnyQ9LrU+Meibmm1GB9mER4P92MQihvJu/rT/m3MXeGeUHx8tSwIr7e4wbZ8Upmn5tCWPD+TS/23z18KpmTFUBExsP5zijbt1SET1b8Jg2D5XxXgQ1A03zymCLX3SddINaF0xqBPeLvGWsnqgOBHYQroSFj++Zqwn1AhtQoU3jP4BgIKjk+RriLOPivekAcLFiQoAXsWgVFCP4aHTpMoliSO6B9uCm5PV/2D+OEB/GINu0zQB8fMWkyzEH/f0LNJtf3FYcTrrCTrC1CBJXDEXb4ibkI4kEWozWR8t7/GHCSSgVWUGSfl38D0u9A9ybLSXIk0+8WfyMQnbRjoUAZ6/bx+hxpYWKKkbI/gOqx5TWxQWd3XLdGjxxrSnaQG8HRQ5pNnZP4CXvg1yDKXjnBzQd556XHHWFtaJjMKCV5T3175yozhjWPWJ1hHuqtxE9AqmqR35/l/ywuSkw7uGLvreBvK9/cPFdhKh6vv9NQJvCR9E6mCGykMcnVPLrlQzEIJZ2f4AuXeYu1kJhwqaFhtoCF8Z7x2/KMuPiXSKCuOxb9umAusagyhBg+r0M8gPp+vpZfTdyo1sYAMSxxXPC3kXnPFRSV5m8Vm3oS7GqL6Dll6Jb64vJmRqrqa36IrM1nZeusXeZXVLMx6WyeuP0HUVxeeljo2SOLbWNN+cuzACBJkoFFSJuc+XSijOn+mM0x1ZjNRIPWJVwhYMLIIuhpkRAzvbIGxsBjnuvdNa4HnFX/ayKk/EJ+LMp1er0ZJU5w0ysebUhozTapF/eqCl3g9bd7i56ZrDnv/Py4c1R6CM7wcEPJUAQy6dRC3Ks32EmXqfp0MtKuKB+f9zF6dnmYQnd+vOmBUaD/errXfQ5FS3oqlv/1tn7cRU1K7EyFUYbGVyOXO6al7ssQqoY2BnJ8/2rM3EGANabOKzhh6Us6lBSmeTZ2LDxlCmtsts+Ota7f7Sh2Inm2rGU2Y1IvokF4pJpHeSxSTw4IdZc216Heq7indC/FocN4HmWy1VXaeRKKdrA9N395x+vY50xedsYgiBFl5mEZNalJn5Lmznj/UjwbzQ5sk3oKsWlJGAL9cnHjRxaImyVIAxLtLtTAwVc9YV62VTFzkQJ+rjQsEBePIEyiIJPbw8zo3amzmRmsW+ImX3yLUsNYl9STZTJhT2lhJMKHEyI2vvmvOvwgSM9QKWEGivbYp1yoDRS03DthQ6JTB2Y6leMihVGIuwJPsEIWAa3UHbO5TsnhR2/ED5sv2+nusGDr0otkS0Wj2QI/pevVb9Awf51sETjtelyotycRNsWXGcY496hhNmwnxz6mTf2vgSr1qzzvHZJIDVF9pvbtLQnXfNhnDkpbb0kT/wVIasYVed/cZ2OATQGUU+87SqJJYy3eIy8ZNES6zjD2Uq4vN1sCMgBeA4210StV0I7cgmyKxt0ABm6oKeSOIg5pDZ94mmi8XZrAejUjz/DxVQ1mLbb4t2WAkZni+SYKUvvq8LYrQrmJ3mLFSwlSelM9OAqHxsD4rMZT2kZpDBPZ0i2rlChh2OqCkYZBrjB8RuG9TtooYzr5AmCRzRy82HDwAXbUhqny3blwcppVX4J5n9bO8Hvco3Phv6XKhEisuqnPPLEHmmOfjEyVVx6/AKycQfq0ExslBUXV0zVMf8LgX67NJSxdvfjG6J+eb3/PEwcAKR8ViZttnKoUiulzrUe+vpr3xIA0IDbh/HDnmNGk5rz+toPPuhS//8V6IUrKIDOb7JFrpRNZoJi70kwJVzZy+CAjeIvKO7IE1wMZoqHjOqpyJ13dwxEVHsptSVC+qaHy0cPtpw1PBfnMOf3ptIUFf/cYOgHcULTa3DvEDoGXlSZg8cUb8ZC7U7ycp/FxtMi2cTEu1scCiUfLXFV2AZ5fh5LWKU/HTktDm+ibtK+PgILuxfT8K5wMt7LrApZASWA+flct30NW8ixA10Wkbjd5aNlG8cMbjG3ukSc0A9yyELWGsF4rh70M4Pan3peEVsaGT+t4vXn/4USVaOKi/UI3Enj8o/Ym0sbpTaRGL9Jv8be47iPQHivJnylSgAwBFBDDgSuLpCWeVt1jsfoXH3/D1Dl3ixBZYuMguuLMRWMQlj/k0AzcC6AWifIhjAuwJjHN9QxWsSQYXRCQhxdx/0MDCwbQhso5SNvPL3plbVzKB9Ln6A29jTzxMqoyIcksg63vqTvM8SohJaYfc4uEUAqnfXWg4Q5Uv90hFKaH0iVOXv/trLb3x56H4ZyuIQNZk62ZQC7/tHq4NO/4xjM2vIcjyyGAIvd1D9IZX+ZAFcK6/QRnJHx70DMk+HYlqvNzCoMA/Vh8yxPyBGb90ovfpfK5XmcJRhQQTiVnUafyuQg+ljas2INpWHcjp+lkkp7Gt9YmPaRoWMgnl0/KTtISwNAI5Zmuhnw0pq+HB/CY94Sk9klVXlo048hrTAMv5cWWBx2tCaJbOUaSQ+9F8pDJCD/gpQiJuzhFI5HoiIfIF8w8TWEZjmdE1tHQlKlCRyxz3tEQtOh/l8ZLVsi5zTlYIrZz2XA8A4xdeOllUo5YUZXc4PVNSJdB0JGZp+/iHBWn21dLBGRt4E+z/3vn/AAJeAkEUOabCwhuErivTvwzZL8+Yfw2mWJKKzP4fKp63tEqfNyyw3Ie1shWcdtyvhIsnejvnNGDBFJqHGR23Z2S26PGf+zKaCs5Hz/aw3MKgYsfqLwIwJ+jMI56WwIVvHzT7F6uC5+g4P8Yi5hwLQD9JKRarAAp+SvPlnATfJjsceViZecPhCqJIp6nQz1U90tFQnbWCSP+KEx2KP6+6AKeSMHPqZfpX56LqRCW0+AXivnBlZT1dC75D9Dg2YliKZdkj3PpfHNrKUsXHJQAMRMveIXyrdZ62h2Xy4xDqHjWgFenenS8asuLMURTkiITbn3HNgiAs6ZFKWCYspx8njSYBpSvqiaxDppAq1cDF6DaoYZzJngTuqMxAsy7fH5P8HJy8FQTBT5iI9dTwquCHnzLibZsxQnhzR3XCnWQkkVjQT/waSYnM30NMepqz7rKY05YOwjsg5aevHZTU24WDrxsoo5bCYTmAaX6mms1qmmriwsyubIVaujinsdH7LzjZc55D1FXl5sB4BD08hm74uJd4qmO2qhxhnP6oPSzEdvm89gFD2wpzS3uCHDLfARQ3C6eMygcyqnUdXcVX/Rhmxu+CEAOda4JVCD5zkUXpOWTVCbTa6px0M+OjhAcDa6Hl6OCjHfPQ7lstyu97bY/6rRxIh22FGZ3x0RgSbIFyNlupK4v8KVae6lW2q+ZYYmExwK9UKuCam6hRZkGf+PupYd+jxuuRTSNyEa8eUlKbzifU0GHuSooXNF+b8yNWMVVESkKgtsfw7wszXhN1RsLNKO9fofACvLRS7wpYlvXYdNqO7UvHXzJqB78FPyDZbRXZBJYXUWxK7zCkQV2SoacSVeMsAKNI8QZPtG+OVqy/IqIY4nmSa4/kjJZ5MOH/jX7f+K2D3poo3E7MaTA7sgozvkx45FUEh/MDXlfhxCG/wRJ2UHdzsf54+haS5xPVwfoaUMVh57cKFZg36QMnKnxhJJmIIYZwNZnzBqTZ6xLE7lCA+05TgifN7d0PSGDB5DINZxDVZvpu9Nu0+W91+3dC4A7pAcguVuz7ZHX87Ycdiv9h8/GTVgn0/EKtxpKdq8iVJv8ec2kPLqAcaj/lVj7J3EO8HOS8Ujof0uUWmyLGpt44iDpAvyeJ2eNhZcAODU960X1lb1MdRlp9Ueo3+HpRLKHV/rG/dk1iREz9B91FdNFUicGOffX9V30k9hWi6qpScmNT/w9h9rEYxUQVPsbQgXLx06vtdYZ0DgFEpHS9pqeZJc6epwEnQF4StewsFXCsqgOmHU0Txs/EfuV7kOA4I+Mb1TyhrbmkL/KktlgTdSGZR6GE2TW2qSu32yKZht1roXIMRZCbYRlGlEqKVS7e90aWB6n+Oc4g6uJYo5UE7Xlur2gcLb+6KOK75drVoIgdksQUQlGjM9MHSaHstT3q1bpGG7AcBGdYrFGpBsFmL8vu5xpBuN8yx2U/yiT22PLj2iZdMei4WQ8qaHv/pmVHvkjnmcM2qGVgD7ggqgATPRb/P3hSKeWcwNE0x+AsiL7ZT5gaYzNp2eyucdDpzOj7HO5yCEZA0je7q5J9bAMNY97HloYebjbyk0AIrYgC68EpYBlvesYiCbczrvr9px7FLgbBU/wxAutEuMQorGq4QA+1Dbwt1GRvxNuNlLpmUg3wvS+RQxoF+vGvCanB35pljhgATrCzw/DdbbAxxPylVIz5Iy65gdKp243B3Tvf1HXvlMQvQa2XLtWmJY7pJupjLmmnD7oEdVFW+t9wHPfyxocRmVQLQ32YyoBFa0nxv3FB2hqNlRgD2MlQe88JizM6W2DBDJRX01ZeNymrqTaEw0FmXZMNdZDfX9IPtVTatyPnbV3mjNUROiMJLlE9uo1O8wJotJGL9ep+R+gKDTnH0N8F1+FEHyVsVgg4j5EK5ZNrdp03gVjtXqrinYmnZurUIQJ8qrWAJFVp2f7wMkX1jm1r8LJt4saK1tOzZxYUUVIj7IraR6UJgCD1yGg3qlmhsoSmGrWxr2TQ13wo+1nqCj4EVZ+8dpEgSat/orb57k9V9h+H9/+tMDxvaZZieQJEbW/uPOu2Y/2NnttNlmiDxm+QFaUrA7rB9nUt8eh79gw2NOOcM3sA6z7M1Ig/9L0I2pGJfT3fUVWP2VYsk9x563kV9Iu6TlmJRT4/+32n93hWY4LNLqi2G2I+Zuzi1/Ji+KpRCThmvR1yvEgbbT+PGrn/fIRXaefc8r+acBlyor+t90+0U3ZOotINGxoSpVUpQKCIGb5o+xDLMOsQnbeAmhcogM2VLcQq2Tdq8fJpvUq0JOlUZkBbEyRrOtR9jLzcbARqOQJ9ks3i1DiGgQncgKYBoNzwFhZ5uxk/182McAdbawzoH5iGs2o7LQcZxRho1g9+pgTkfUIIJHBZwsB1D20IdDawwb8CBDqAruV8mKpftpFU6PJHQj2izmLAhm6H15k9WdXcMHWHB/IwQc8FBcNiZmr4iMIO03rPwyxnH96X/mkqZ0rYKv/dh/dN9VBl2pvoDNHir/v689YRo361MOnAcSUFmlRVJ806kZVSljDrKR4Hr89+r/K2AcDsvJyfVghcpcA/tFT6ytZsWYqvsldMbZFRsOLOpuJqAvONjKvKShnTfbMgSeoBkQv6bCb/yCTDsYhRh0Xbou35Xdj3OCNFlLgKX3me7tsCzfreB0d03Z3lbM6CKhSLLSGtGnhjHmWNznP8P1/4E7Y5ilDmrUgTd1owuuSGB32pgZfPBV8WsXEffUYvKTbs+leIxrfxISi2+ZDq6iSJOxNfSPf9XAC99ZpxkxFsKimzPvu4bJMZRkw6etW2oYHnjVAN772urQgoiCFuwAAAEUMfwnBheWV4oMMYbjJDh0NwshS5b50kQVAFZOHe5pqYK0rscUHIoquQ0P8KnTkDGCwWMTzvmEhqvfP0o2zzVQffctrKCuoXjYq4pFzipbdNWViXO7EZjl2sh68VEtraK2c/eHnFnOA/3O+X6d7wZ2nGSY5WuchJU6FGuCKW68na3zmNk9gHBgwIERUSCrV5FolXroEEEJVA59DuZQxDrvHLQLhPYGwDLjtqFWjMPbKu/qztvOl/bQpFaDXTyh7aAq6yAoaeGi8CQaDYrFEIoSYg6D5ZIW8lJDU6ji1df6uiU5NaV+rVpzbzpDhUpWeoHMXbpGUBHbEHRA1Z/G73oFVibidXTg2msRgnC/EGyvBNmrEv+cziRe7dX1bDP/VbhYRh/2F1l6Zxa6b0HJJItH5IA2Bpm+k/ctmBxgM4sGucc8Hvugw+dt/y6pO1kds6FWeVBrkSRIBIJ+tg/wgQd4SXkn+CusfNlkC6vLyhCs0zLO0MbyjxHroiR/hhXzvIDad16V98ncLXTk9qfSHR69oC4gJcc/rnfUXc/SxYMdl8nYPcXvrclZJJTTFMZrYi4VulMfsRkmB8hLV8RHBnn7eG6uWzIbEq5RSio3AXIT1oJz0EFFzQpjIVE8kQrI3OGn9kfjDiTTasIKOZjB3sVwJQDz23J9hldSOpG4H91kqF0lFFIeLmtQkWjOsJze3zEDH0to2cCoAJlJbUUc0DNQ4BnscA07FJy0karcaQcmz82z3WYCJAkvL43fVRl5lSrTegCgbi3NiJukSGJwGj7zPH0cwIJil5TP2DKXC0d6Wa7QZDeUbKvPGirewSZJ0cJfR9ZHnMM/uTPboOnFKbD1gv4f1Fx3+zIDw01uGhKfJMqM2x1MNpotojZ5BasiDE6iEb8Ssft+tST3hHVLCd0Hxkyl0oR3oS0mAfOJAOJY24EsXZFsgnuIhgWac48/6qsQynac6mT7jT1ITV92cCw3aaP8vMgRdfKjDFLwsQuUYSgTa17CMNsnZIaOQli9U0HNeMdkiynvq8GsFC+A8FGO3F544mYtKGeXIR/9fzkd3FxClxy/zysfkyGhd348iQJM8/dI4dNvuLqpo89hqzVRxOf98Yj8wdphqUPQ96JeoZSA4jxKnJyhA7oCQDFHBu9RrcYbMSEeca73v4bgy69npdlenDl80ki3Gvvb0McsiBszv7PNdBoC3sGurd+a/eYsw6K2T85n8nSQWf9H89jfn05YKDVggklrI56INZuJY0rJSYsbuCsxi0rrs2UtCxviKUs2n6428CbHfBrfNkUso7xIvSo1l4IIghCD54PjRYlDjkL39rKcuzlg37Vnvii3xzLx+qnL4zGbDSnC+MXwq/gWvJDkXEOM2HLHRFR8BzBZTWPGTWwifJXeB3Ayr6IfcjY42/TG0sAsHJeag8mmcdVR3hy0lwZrPto/GfFqK482TK0cpLV9Rql2ptjk1SiK3a0PukIfMjTIhU+4D0uFPHblWxp9VWyyruANbNygmYyVpa8V9tUv1S0o8x6UNKomlWX/txZ4o3tdCBoP283Bwx35xP6MbOwQ4ROypqu8TeykCGmzJ78WwN7Y7HwqLv+i8CltElq9XpJJ147BzmcdBpmol8bcLB5j/aI8v0xdbrknv2rzu3CsfuI30aXNEX/kZR+ef+74H5ubG8EKaj+T+C9UbhvtaW9sMsjyTrlpL7eKOjeUXWzEp2C1vhZZGnXYyNu/du0DBRqoXBV2fxEgihqfJeU48b8j7+t98rx1FLqHMo4+he/AkW7OScy4ZMDAa9JDr2NTZKtrClVYFM8qHa3gXxnqJu5VxbuBaCpswy9UmvaDl25fh/AA6v2vwXB2y/NKlR17xhilzV0ubLVtZMv4HmKo1Kx60ZHppIGDUnIHaJN3M98c0dRXTBTT2Lh99iaFRxzXDzijdRJI2d5S3DmrAn30YVw5K3AEWq3oVoKpZrme8ENBDZ2BluYvS4FiHsybGvCqaqmzFm6xyLDimN912M6Bix+2az6exZVcrbgM503NbPWl3fLNYy0cQsDeUjIOOLmXkqzDw0x8DvqVo9r2pDgB8wsbjxNj7kz4S/i2t8upHRJwEukkUzQ2b8IgMHRiWvDBGsrMt6uBUT5aNsw+BZ7kZ1y5sMIFeBpp+PzZ0qyGKWHpTfKKTMRLc982tyrn/RJ3N0KO9DJolds932n69UlT6JuxAQZ29batdvVTpnLeRgenq1+NQDmbL2UvuHLsAFe9QqbUGkC3xhSgCoXbVdLp/1ltYl3kGvmnLIMlW7nMXN033rN2e9djjcmhrIh+8NAub0y9Ho9GkduKiK7bHzLLvCkXqluqDmxBcrHNy+FaMNdLkm9sH/1f+LMEBdP9hpl5EebGCZygJmJ0ta5GSa9DR02jVLPYk4IU0LkpSxdQRrgTySCFKVNpRzdMR8MSAvSO/VeFkzHZ1cybIWX9nPcbUnS5X7jNzPVv7tSf7Xkhe2EkwELYvpors1wYdyiRRz7WcYz616gJGTzfkRxa1ib45yKB/6QivmjbcOtoh6rpoupt7ZylagTZc8ageSaUR81z3F/+qlARPVgpaMhqUUciO86BjBHbHswIFoKgBWjM7wPkRFWg6qpj3u+CkHTkyBDCKOU1or+PNioWqDRCiHyn+DdjWDDWs9gz9tnQamBEGWu2bqDUwNcye3wpweqOe7lnPTYj9+u3dVaT0ZdAWvRJPMu9JP81M2wXVWf5sitOKGSAv3X2Rc7WIHOoqj4WJUjl5EbyRpK/egMWu3EJFrQU8aSdX1Jtke6IX0AHylRQQ0W7N5BEYDGtVUIx2+39X4N/m9nVEu2BRspzkc/2mXYuUTv8FPdgP7enByMsx88/JG4m80YaGw05GhTNrtSBjyGWX/6rP7XwfPVMM0ascSI41hbVdmxJZf+rXOCkuhuCumJ19MLz/WCSC+o8zi1ivcLidiuhSMzp1D5CWw4opGMXjK8oSKq3ynxKeOrO8WbamUAnXegpNVEH6ul/GSFoZLDLXEdsMdIYoWXtg5fLk99vUw3IUyF8qnKusK8ynlkHvLxQFTZLRsDoqvGETXEm1NdseZACj/Tl//M10byGdQXqrBSWcUFLtkyzDhiK7B/58U0AUePXXQnhAdyjKYjZ2j4ttzNXgmd6CMSAR6Ht2gn4srz6fEiVrz8V5J96nH+VTObyyhRvGsfM8TJI+05Bo8UBnNdt+34pEihdhtqZOOZOJDqNOWDz1JG5TTLLY/V5BXB/S9L38xpTh/4xStKNywRXK40naxheq+xy4Tz0HTNt9yO6Mbv2vTr++5ocR0s8YYv2tnbvRUDd15dspO8gA4lSGQrafRSFMFXeZtkguxhtMlKm78U4LxQpImAl/8dUWfqdGJy7UEkBhx7GaNDbPaOhO5p3Km93BtPFCyHsC/rhEd/2zG/g6sdC7b/NkBvS2t+18zzW5SJ65lpz0lHFeMQqty3hLv/nZjxLdQ+dlR70jTmyzT48h7aaLRMiJUzu6cSEMyTWPQP1gsX18GklstN+DL6xdeKlnR5UXRL1JBmSTcMCsOF3MkweLdz4MTrDtu/cDMjYlVBtwNLVKuRi8Pka+e7DKcnpTPf0ae8UP4Re9dh2cGuUZxu3YvIO58wmJKsrcRM7OQGVicBupexuDCYzpa/mUgG93weDvtw4SYJJMGkfBrCHJvRsCB1dZafI0SxJLMGGTjLlvvOftVpp4nJz6iUDX7PniXm9rPhEbWiPYUNZDuXInGX5DdXt6/8QJ/fw2qLGf7frMebRkfB/QOgdBC/4r1w/RhQ3+KP6On+Gx5pX/vFHBFvtnHF0nL+l+CCjAww61H9de10zJSyUEgpRdYCY/GcFEliDE0Mh/P8Fwh1QkI48HEIYvxTDdQz7XXBcNqQTO77cWNcDs9eb85MTve/RwVW6vx3zc4G91CW+TTqZoZguQNndpdwr0bgarajNXmo9najbrkF+Sxk/TM/9yXcOjRRYIkX/wevK2d7tY/Lm/eTHrD2L6k5qjMkIxUtVkPpd8sSUuv76yGUH6B/+zbNu4BZ6JlDPjnQD9JjV9/sWQkbydYK827CDmPtEisI30RLNGEzM3BvmI9frQGPxWDIi2HfxeI4Upk6s2nn0ZK3aeHq5G4v8ACxurzI64z+bdz3B3+XzrPKDwkqunkn9Gnq7Xj12LNkMl15x94/7lN1e38ivgnc0Q4VI8uxefd2rSGrxXLEfC/4gjHNCOp3gfaveF25MCNfJRRnwHKtJqcor9gajJYdCcWX59PWF1KSb0pJ/JbPfu0n5AQRAIOzMiddOHsO0fvXg50kOp7aaZKjV3P7U0Cm+ORoFW4ev5klb6jw/WHpWNEjrwZgpTnr9LKYvDSC8RLnudlPGEdd58xmB2d1vYIUQTLbFWO0MfMyIXAXJf90geJA19dlQ+DsLwhmzdQhj9DM31CrUnjtt3GgKHOQHqAmdxnO9cimcpQNizxCHNWEfpoxhGklSWg3DJMD3MzZh1WLIoHy44yfR2150d40O9bwZhxvNAoVc+p8vNAY8afkN8g6/VfFPdSa/ok4TjVHOaZzf+Lbs4kgLbHevQxycNBGc4GrropNOgwZSswmyCRZ2SEO0bIPNwh6H13Go84sPpjLfFNwzG5M+gDoWOhHEDjbTLbUxIV1jBqhQkL9FigeD+hDOJfMIsW0UXpj6CL89PB0ix+wyeOKq++232JhSwzJil78ltX7OV/geIyMgJ9CLnJ6IVnBHiISVcJXotMAEKeLagzX/pZwvhkU+PxjTQYS75dgsAkP4TCyZLZbHiqy+NxeTmlLq2E2GCgLfcUV4jjKGDZZ0MY5/Warb8q89gnlgY+bamqC86kpw+jaALpkE5FEKZJSUrgUgnKuTfWqq/h3gVBASi4+sVLzYwntPZVyiaXUYAsmP9KLgT1mlKANEdGQ9uDO21XSCKV/fNB0YAHZ5hbamwQS2fb/s3fRK09mJVEpUaEID1sv3QyMtZtZMLnn6uJUCIbt3rYLQzLr4yDPNvs2YM6wsTHVZw7S/BfPtfIYAXDtxSu+ZA5lGy9HD19IVXx6kIitsIYZbvtvQUKEw4IRlHAEQuxgSjwWdmp18h3tORDJRlL5kGc1fAP7HnGzEiO//u2vW+zsT+KKVywTXdXvvYSHGkyrakHAnQrpXMZnb/ddtBUHC7oXz2wPLS7nTD5YgNV+RyO+W2OHj9u/tx1ZV3UT7xxodluXB3xw94czLuv8QYaTCgKAbVVFDpJpjt/u409Y7vxUwBXZjc8G3Svi89fgpNI1WVL08h8RmyCUekeLk7u6f+DIckoht6uHkNmMHm+XXjgcqXTgZwzg+Ajrb7C1a+wps6X9MjON7dR67NW7EK7K8f+S5tThMgvqHGx06aXZ0zEryC5BzI8jI7Qjb01lgtvm/kvB7b1+WMtnr0xj2DGFqWMd1bw/x31zOE2j6cHyjbjA+/xL+1Js5QAUjmQNzgvTRM7YzeC32C7+RNjnanCo62dAz069yZJN6TWsKlleQ7pWFrg2jRBBk2sZYf/9eYVLE+XsvSYOAMFRDCYxW+DdzTeAfRO0PrIXUCS8YHQIys/8PItCWoJ0uMQamCd9uETaOd2E/OHIZYjMAdlLaNvGA4h32MFLjdGYSOC2eKuk4JcOcLic9YG7HWXCKIKOSoQ1MYvSxI4qGiAza52LAgP2LQj7LLQ7LPSoBDhJYKX+y+5cYQfvYaRVHNQJSEFd+te3kt4DWa7+HJx+pR5EWliE+MDxq3RSyfSK5vEUOURY/ZdKALAEatS7hVsK4vsRH8B8Ro/U+N9UMY1VGL2Ysk02vpugjoG0qNh2mz7pGr4ExvEoge16M7v0/xK0ACZN7ewoNRzRHIkxH3EtxJlAAcr7MqRa3KL8pBQDZlPCKMf3qlrZdoO81wYPJt4Aqb/iCKHjcVOscd7zqZZ0iGmP6UioCrJv3Sadtcpak3Cc+kDK1KFUjiCTytmz95kK8sq9S9njbpTD9b23I12SMjEP7DCh2OoGcfGuqjwwS8KA+KC7BNB4Vhwy4NB8wtsiGW5M34dpslFKEQAThn+9SmVR+NHMUCrlwxJlshGFP8np4s+CxC8GaUp4btMlQDOaQpLDZbH+1WlM5fyCXm+laDDHGLUZpvphLuWGpIhLcSGxJZqr7qQosgJEHZzN7d1rKRZRvRN1zl9BGCE8XyaRUk1S9xdqbYkbdG2+X2xi97gCWCVOzrG7y5Vr+shjipOl+23U8UyVOM9Rzyog4Kar+fm7DJGcBjntwV9hgMylM/3HiHj57BPsztP3t+cJJ2Uh1/yxXCouzX1bDb+q70L98imGD42OAvtzGvJliVEDcSF5l3APgutf1nfPHval/htTIV+NglVohSciBl45L0KmVgIY3G+Bpsa8tJ21IO5SnkmLh8j932I0JlXPpODyEF6yl4Anz/FivJ/9iG3NPcHs62qVnPSv3738z/LzJu9pbRAw8846Bouqaj2Q8M8ZAb1/dGwbk/HbA6UTqiwGT3UOgUgE4P6ZOuxcqF2Rko7n49U0/AYA88SybrtlZh5UrBxH6553MO3aLSep2cT2+AqkTnqFm7Lz8Y4SdOGXs1WeJSPY207cOaELGI819KD9Wp7Gqzr83EHVEJWL1tmruCqheJ/PRLtxFePMCB1BlfkezSdRFhA9HekZ1erxoIDOzfREigRu9umQICRcxWvORneocvs5KmoqzRJcxu2InnvA+vjNzZaZF7/lTfIKMcseZfIiskOJhB6rgHMj4/gCR7lMFODXfQ9O4vwRx7SmxhfoT6c7hYwB9orsjP3lbyUjDhO7kuRPbNjNQLriOvdrluG81SkjtORzde9yXtganAHynKWBc9u9i5xz//431/kGSpYY0jntGT5+Tt3siQvIYBadB3lDaELpDuieSzsKlP7xmRWQ5oX2bKBwQ/Fg9HvCn/KZi+8G0CbSNtLjgzsZo9Yaa5YJR/W4pZtz1lbV01scsv2T2+Z9A4wlvQ8QvvOQ9pk2smJbeiqFSlz/ARANgpJCuz6iEb3J0X7gehfI5k9vHA3DvDVbyJywbv2eba6RoujZYUYLMHJHuDKy+9cifpe6skgKhYxHxlSchMWnrrHskgcNnMx27tpcXCAEzGrmhYkXmip2FiLtr5y9Cj/stlBVWkmN9U+GwQOxBrcEQcYo2IToCWwoaETsAcIv1ZoKEqGQoNWgnP/qFDAJZaWVLBps/AFOks1p6NJTO4id+Ojcf6a6fFsJ/bXWBrB/yaBL650ZpdkFvUREJ3WZxftusZBaxLMhCRmB8AU1JCBLmvq8dY9527VtndFA9NrYOi/AFg3cZZnyaEbIUx2ttB6iZEZFvCZPBevetMG/9mYN6i16Fcy0UKz2awUuAzBnc/qNlsDdLb+rFA9L5+M4c7x6v/ZZP3aqp/b7nBpdoYsB/ARAnz9vbzZGCdM8qks4SEbc7FdCEOeDAdxVG+pEs1PcgMp3uj+Nj493iRVl2afbLbiINnx9XUks644YCMWF0QOEvfHAL3s27ObXMwUHfaxmDBufIPONJRiX0iCD+SfL41FoOs/k/HC59FafISUtSiRvn3Qy9pztbivx+p7+gBti58OAXdQhJzu5g9bqUNwJe4UQ6TTynYuXxerwUiZX7XwDkFrF/5bRPljznSzYmfSzS0t27SRkXdtLUpOf2ujurWAUCM732i48qWLjKAkezxCxsus6ugI1XgjOnCClauWt2sBeKbikOd0F9t151nqasDxsq6dK8rtAi+YBhq+dEaATEgHDpqnhnTpg1D8nfNx39Y0ioud6OO2Zyr8xgc7wiFiNkbjQRwdS4XtxAimCYnAiKSsmuDp4od6CWFjz851t2B8PD8Lv8btxuJ9nbE2YsIHlWyn7ei2XkE2tyVpVxhQRqhZeAMb8KLS0sjfH7t2NNfjS92VsQEChbBH4ym9yX4dPqsERHlL7U+4wVHEeSp7gz3u5ht1B1wB1IJ1InlWf+UDWWqnl2zyGlYuXd2fi9fT+NpD9X0m6OP+zXSsgQ22Ben2Xq7us6HU0vEskUvflaUl2YAdhjthimVlZaiBj5vxIrr4B7a1PsnqNVzT+89PVt9fCkD90XlK9y2jb5K06tM+3R6FDlOicoRUQEzgbKxLaRMO2SJD7uzPxBQ9HnMi2m3YREyxpl7Bo/LSKKk7ft0FdAlpxwwgywBj9UNE+FlvcvC7rjNAFqTVlfEowiO+jPVBqCuvx9weO3dEEGScH1/SinXPfcvIZssS4J6tXHEQdUcLAhEvVTnEF663X2189px+LzxNsqPYMftJo1bJsptxZdjLBDKRCl6J5j0mIK1TMx6xbeS0qYZw2lJ4ke0ZiwZCyAyf7M6T6vppcYCcAaRn76jXfX2ZJDeB3gTGsn+dz2/pnXCl5RtTNOxgXoUU7gu5Ygi/AYnFM/y+PdDo+fZqf5YK+1qvyGHPRag+o5mkQ5cEco3z9pcWN8I5BTukTCP5XZxW+4QvquY5IHcjIS6/Zo/Thbi4f87euA0u6HuoD/mpiCZvJGGiELRFXzdWCnjY0btGAFjFT/BeCdbDErogYrlr5oKKoAbDDccQEbdFYKOy2TySXuT5Dr917NOF4TQ1xB0vl0ALcquJDJwncHyVmw9aRNAT188hXfvv0frc+m/6CJpkVEdlA0pbptZevLVdCQJvm8R2xTMYLkc6Nl8ZqMzLqWUARyl/4LjFhWNWxIQMxrRu6vEzyi3RlDo7yI0WJZH+FVlN7MivKYshIqw/Xp/Y8y97/6tYT3YYGaKVV1Ysf7XV5QnFF2SoSCPmuqOXqVvwvB3RD+bTIqzREMALARD7U9v7fNa3lr0swDiuvrrMPIGCXiiDTT7klviNwUy43mPCK2t9kfQZe2oRra9DbAk/qAzcUWsRIsb5x8f4gnaPQLZgwr1b5gfAXhGsSNW+AbR/Ucg681OjroMGTLl6zaIJOwBofHMolY2q5DCjdem51CdMvku/1Za5cTpAmFcy3n8QNAQRqlzkYeblrEghfPX/YZbnBwOlRZCYDUvQdoFEei60jgxFkU5/+pSShWWcYPVGUXLhKyhn0kLNeFwCKbqht1wcGF3uMkifi0FRGkARlPvYCR4hUjEO3bqFtcwcFM6oD9Vw417qv6WQspWRRUCAGJs07+yTCXfwTeImyyjZKPBW8OCacAbYtg27gKk8HVMMmnbUDbDKtvlE/XJzGpednRDl+ZExAOZSX1b9FoMcYI1nXiavx9JQ7VG9dMJbkB3evvyVkPNU/lH5EnL2BKpAyro5A47sgBH5SU+2Qc3LkL0d4QoeBaH3FhhY6pc40brcFmPCZyvSzHlrVyVbhb8CqYL2ScfRAvuZIu4Ldp8qJH9VpAkujSr7rzqrlfq2QWuLVp1VRyMgRY3FXd8XWW1JU5A6xTmObduYAqcbCFAcJ4h4Q5+5q105J6MjCyHZYUIOQiTETklyQqkDY5NZ+KV4BH48rGzc9zG2IArUl6V5DtQOP/BBNBm6m8//gDWQ5fVSRjlMu2rC2xiyA/PB/XB5Ar61kFn3fP4uMEdJVx/MRiPLRnNH207pkxXoBws18O6oQnAVKX83zArB8zVkFf2Wqg6O3n01616dRQRCki0/FEjxfec2j7LkehuiPEzEPOkqNK+rcha8G0Pk/HnScz2MCZI7Ijq/YBjPdNlxR+OD74Q3Bh4DZY/0mOk2HPV6m5Zl/YivDQrkFOFS/8dERy0t4/QJ0EKxHkawoxqS3FqCgWUyw303uy+E9wLPSjeYA7NEV1mw+pswNduFgFdUxY2/HTnFmYemawc07pJSxycddnPXtBuSu62ldLYD6NJAZXvfmejD1vJb2GKSgRJnkhV/qUw+RU2rjBdrafJ4w5D82On58P1QP8igvDbyTa3e31TgDvgv/1Hx4HFlc01R4wb0H4bfY5U5UdTejnN0RMX/2KdW8siD0a4YUn1iC1mN1DjrMRhi9X+tuU1TXQ4P8hQIgQk0yO7HSRgGEHUM8IY0yCKYFh8jdzHc4fBHze+RyzpToQkEr3K6a8Gwgt45xWDyVBLqn3KiJnHwKVz/d52X9f9RuIZSSK+xymXHY0dS1gotkp23NQqXGKvUS/DJVr5nGADIAnK3BkLS0PsJQeph3kSMh0v6uYK79jsmMTq8xkr1A3DLPkU1EBrrcxmwwHY3vL64403lzhJ4FQVu0hiiwoAWiTQHhxPQVWD9epiJYhwbmOoxD/9waUcPifotRZLFyjOMEqUomRhHHt59pPNCYW7KQdG8te0EEXEGi0OxC/aGmggHBhHYRAtNEDWzDEj2AiDxHN6OxGRSJP/fvd+7kNBn3vEfInw8Ua67T6v+GFs0fLf95s1L6RwYQAT9h7y1ZRRYTQnpro9mP2iB/GlUUNAKBVOeVJq+6Wt1+52+aVcqpIMROfJrLZ/z1I35oxtjXs/u63xVD/eHVqvFxsJOiVrkoolUmh0TniCLgMoFZry4l3iIvPg1SMM+TCqZvVd4rh7MAm9M3B8uYM1Yoiapy1Bvu1jRt6EEMx8apluqpf63xcBrRikkwbDMmd/F/tKL6RNpwUyehPl+mEw6Yb19QMiDTtVM0OZ05h18oJkdB1f2XD+ay6z9/FmUeMjp6fnT0Pg5TBsApxT8rzPIFW47TuevijomWSWOzmzaf1/FiQeCwmNGlQzpsfoU3ydX910ogGjlhsAXsJfQs3ml1xnCvgaSOsZfvWvhiEUHsh7h8oqV1QFBm+uEFLEdKFs2NlxDbxoYzE21yMu60L9ZAExCLcMeaCbYTkZI70Ng27Be94e2x11lp915XmaSNn40MPD6vx4LEg1wvFD2dA/lDCX1Js8J1/1LnpHzVnBOumf6Eca7Agtg+RDbr1VfoQcZFueEQfwLWMGZ71ycwV1ZPRDxJ7Bzispaf03q0SaDeSqHVOcM6GH2GfLtXoztYHsaWkeMNRBuOKgiVqSxyhxlbQe57Rgc+cMqqr2PauuD4p6EU2RBf64yRc3CS0jyY1mXvyJDM/k2EsBLj1AZRk6ZgeMxGzw0NC9SeJcZ53709PstyuavH7TvBO5uepsn3vOdCTV+XBRYUZfmr0ipbPk32zSf2LJfzEZc3lUzQZTX63V1vGkv1gVAOttMyZY41l57xV1j/SHcOVB1+JCijyW/R5P2NAaMAsLhtasdSY//V5qvkq+LGjHsrKBrndqXMV2hSM44bjkE+pROtzAtzLn5DX5+XEZPquGAtkLTZkd/Co105BorcN7kmrKPFOS8G4W2Pjoj7hYyvjGePXHTxFWN1PNWOHSPGYHmhSbFDCZpzhu9ts93Ogri0eD5gYg9zCqS6ulU+pMVwsh74sAPXwH4mjDCQtaw9A+8q6+QWWuSU7CDsIcPVuASv8b77fSoLLDf2Rrjvxat5KREsZBgIK0oy9k7UtIhPBFo/2dVsFQaRVShPy4KIC5AF+glCtzB7vZDtZd2U1FFmIyHy9GpHcjD4hPu79sMvhV8nFFvrgfbzCcBq5BnvZv/M62cBU43OkkvWaTdNlag/7IfPVfOjO6igxx2RUY2Y4pVe79vkNMd0g3WIThJyvDTHoc+4+ucycivkBaLfwpm1jCi1Hw6Peyrb713BHsJ7BX2BRQm8PnDd+Tfuy8irzfXC5mhHkTcq2L4aVvfsBfC/Ww9kGS639zur6IRxoj2HB/0Om3ZkH2v8IFR2BidYxWFBuzk/Rs53sU9EC7g/3YB8Skhrx/MXDrqw8vHr/dGnQ/kwHY/jjRlr5IGGs69C3wYGgNoDNPaalaxO8QByzM/4LZgfS5bW6b9ADjS8anHBY5c2XA8iQZ6w9tcmyVwgyEVQk5QGG27FH839t01qsm00E9ZGeodBoSZJUuQgl3YIn3jSrAbJCCV+RjdlIaGXptTPWRJ44nnxyXlrj8HHNkT1p5MBYxod2co5QBBXoFsqajzal9YU7LbjEvmJwsnis/0KqesBU961/fFpVDvKv/R38SdNphxVB/fN2wXbZgpRimt21f1/NNiz2lItXNx0AtcoGxrhH4MLw4ZfGdyVImAwuKLJsAzARa3q5mOc9/r3bX6IJSvdbmfpGHeBNTzJqu0LBcLM0BsyO0zyJ/8F0YvdXpsNNUAzcBiQuTHGHwtFc0S7I9A3pA7z8CTP9y3i2vZrf47f6HjCXMJuLQvVTMbD4XHQpegaDT/QvX50zG9kqfteIADIWrwNAcrICAQpj8/256UsRkixBpR+xBLt+qHqaPFZNIsIgAfBneZXp0+vNONFYDceYhBj6NKRaLrznZEUJWVp7JcfPnqwP8/QoTmraOAK9k/wg/ufEGZ33wBC6fjtoypzhDMsf39klu6LMwT2P3Vb9yvkkEVWMFrjepvKriuzBoAYi+xLbCiigRW8rNLDl+5r7igI5JbAn2JOkGJaPqK7eiuf+L6WFev0su0lyKTHbvZvqPNHfQ5C2VUXCHFzqDcUInh8U6I+U7Q6vvt11lJA3Ir+YhYD/fL1CAbT5J+r5WxgPO3nO+f8YudWRifJcmRtCO1k/ZfyuzUbBHN5kVJi0wxWdWyLtTrel2LXAse54K3HY9DNSXFPw7K0vWKuzOeEjryK6URglKLimfb0o8PuFzw8TISjfyqWEw1KfFl+dDPFviNnY7gfvU2iFv5G5dCk78/ZU2RuKBuAhPioWmvhEE2Sydh/MBPLiW3RjSbpCKJ9aiThraEYK/fWQ/6lT08W2ccKMsEk8lBzw/lO15tRdzUfvP+Bx7Gzi2LawwYV5pJqJb3L53EqSvAuxbTpf8+DWJlz62mRJ0+yU3I8ro6EEgjwyjAGk+ajGw60tGwwMJgNC3Cs/fO30JkmFEx0SUVwAPrLoI4ExSHOC4Z3zfAFicA20iM9f8MxADLaTW+ugp9UsxJiEr+Z3gSUK8DI1BVh24oxk632klhKrhbO4aFdaVFGyL6+dbxfzaFT+AjW6ehc17Z2WWh0AFX2Zv46vzKOQAotBRdLb9IZSgqGl4JObq9TXUzMNZnEFTgAZzjeGJ9rlY1+6sJTPTSCrA39cFpkTMknGpo5eQjzQQxKLy6cdCVCBfNpgKELG53xw2uC8JikCAUtlq3UqX1YLz4HkpQYTrDwIVTJwxibm1MHo5IX0JO5zDEDj0YYPDqPIJ3kkPon81QEKcSoxTMbRcZ37SnwW1oKYcSv8yNSc6zxBmdHS+xMGX8b9Si3JFJwMiBpwROHC5qNl1zrBylBNi3ugDcsF1uEYSdYORgC4GszNIW48IIsg6vZHGCS8hUCPzqVsfIujfFD3jHmPu9/rg3aIoFSUtgWzVISQZ5x+R9euUJjAQBurgxkPH8z+Jc8m19h/4aep5UOxOchYrmIYIDxVzB7jneMVfn91/N+/5NmP1rPMOdliy5v0SbK/iMAUc/pGDMaDMHPFKNNJyvVTFHnDZHLcM6H2TImTzn5WGUwxiyq98LjNdddpUi4KPqywCEXtGsN2QztlaB7VCgwOWx3gbplU+mWFWDHuRnhjIpbr6ZFRN/6sb9z4e95uEW35RyGPM2cPrfVAD/SNQPIi3C1auUeDLdPUczG5xqkyFO3WTMeI56Y3/5Qn7sQjWyRvfulydQCJBcXoo2r+b3+81NO+r9TciMPDjUlpw7SGmqi2M7QKddBkYnt8BeS5KJNp39XGX5Nh8lXqC32xlSYKv8ExCpPIHj39W18whhh2RaJcyJjVxKUo/3CemOFtSt7cVxINFLcy7T85iT6QD4V2UhDB4mEMaCH8Irk7BAdn/rI9SzAI7mKZfi1JGYouaKGmBw9R+fvT+05/2VhULRKHRxOxncYGJiBObanVLNcmtPwl3NPZwGw6iVewKYmxGn0PRTq6n9runVs2ue3K2nsog9s/Bl63OE9vasyj1e/mJAGcOKh5MOYGqO08R5VvdekAtyck4WZyKMop3mvYPYVJ462GQmC66NskSi22jL5nEmrj/xAdHvOD+JJNhBDbSTqamRwalfqjtpaN3UJ/GNlJFol12esE25fF5uyKKqmGNM3g4nP8f3pHLH9BhIg7UNgRc6NoTTtL/PxVU07TSD/kzGX4vXjglQ/2BiCMm8wvq27PvITFHkF+m4hWIYqqiyED1whL2vDe9yjUUWL8wr+FPC2bCVt/ZSWOOPV9aZCmgqNdMS8YGLuixBZui/P/F1l1tf3SGoSelb8pogXZQTyzCpVszX4+wbF08NpmtlBakFF+JjzjvHetd6mh24pMRsKpkJ+uCn4tjHq8fXFzggQxCD+g3QXjGh97enSXxAjTouCaCgrBwoD+Msh1VVW7NaubhHK4U8q1hulJEKpJH/1eXY+zRG5LruEGIEONPQmt8Ds8eK6tyDjX4CtViiJ6TFCFRU4j00RKyFvoE7PciUoOjHN0wzYHXo26OyPoWVI21tlmjzov16Sy9EyDDRMLGRRXFDPrUv2mg6X303OLRsODeHnWxURt5xbIHtf9+uqSlG/Fz5Oj6+xU3r4eeierPWreacSAyMule7sLslTeKJyyV/sUcY6DHG6AR5Mxgfhgn7KLPTw7MI3OJtgFBDIkSNNoDh7hXqzY+4BUGKEWNuaxa9urroPA43D1roHvroOVQtJKxM9aNkVSAAMXYArZ5zeFjnFISvK6luX36ukJVmjcs3vmpoylqtGn3PfsGOrOr7C5AqoW/2Vrt8r8v0JcQBzPlL748HrybZqyHC0vwN3sad4QJvvs0V5iDqifoKyjZMIu9Kq5d432pskXvkqi7pv4UDCtyxqLd2w6fODo5n154bWv2Hp0DVg/aC+UaSLb0/jVtxArk0wzxC7JT21ay31iX6uj944GmAam9ljtM9UyDF2tU42yEFa3CTmOgbALn8uR+nT46V19ZeSqVORo7e5qfBFs+Bn7+cm358Azv1UExJVC58Iw2AuPQEed0u6bghWCfeLutM3oEwRFP0j67PomAjvtk+AodMdnSgtNwgi5Y25PhIO4DrQkH87Zl58pAyFS57mB+aryBu0Wat4+jImFDZ/9/FtPZJ2+hOtl0Tq/h7fvWFJBvo5E7K12hMwHj6SDtXFJmnrDG/BCiFmrL7Q3g/K+f4X2wESTfs8J9qrKl8XPfcnPoSVlFC9+oL+tjlZp8YFtTv44IyxmCU9L4xsAbRux65VBYCWk1bUjdXkp0cyUfOYsWoDA8P+x5jIEzqy/2CfZeqCXHtsF681ScjGEIEkiUpBQF3TokI+BwnRMZVpWa7iZ39jimHfeXDHeF1rkgT4T3gY20AJ4LTv9ckksCvz8iuwY6fqKGt6YIsZwOXNqX2mqVOG6gJQ7Hhpw6v89NSRmSnKrLUr3CKHX88l1vUXh+zgNp5A4jmeEN8iQHW57dUED4SIexa2eSZ7inIHWDYK9aQPozp4UiPRrJkE0+R8xpDOiqf63CfvyLOspeFGRCk0+NYwM3RNMQVMs+Tub5EAly4ykX+MEe661Vu22ZZiTdaQGkQTcFDgvFP4Z9lcBZyUfLe+2qjO67KpgnNYnFxguCm4niaCHlGMzGvIGPCJMsIQ15EAbJrfV42CeAlHG+c1dYc3hgMTtRbOnNAyzYKVyyauPRPdn1E4J/KKp9GZBUkOaUiIDjcjKZiYp+tmZGeMjPZ2haRcb4tFXzdZD30dwlRa9yLZIDvhiYRpal3O/Xs7PtAH3kRPYIqM3hcwqAKTFT8XUO9lhhcLM/P/pvCiTJP4s0W3PltuVUfOth5wNv4KjdXl1VFe61cT+GjYEYG5BwuUaVH8iMs7r2Yw5A/5etZ4t2LJB+o05WILYnwhqdVg+Wb6G26CQj1/yA0dPLIrwSi0+nz5dKQo7dpC5w4JwnqzRnegCV4IkCVJWW3ZjSZah3+p9ifNxd+5SvvAIHpSV/hnN3x9KVMkdOVGnCgplfgo2Nx+KVmz527cIfUOH+JiCp30R++89cUWsnohD2GlH8LxQ45PBZdL7/e7tpBVceUAAAAAAAEVYSUaoAAAARXhpZgAATU0AKgAAAAgABgESAAMAAAABAAEAAAEaAAUAAAABAAAAdAEbAAUAAAABAAAAfAEoAAMAAAABAAIAAIKYAAIAAAAeAAAAVodpAAQAAAABAAAAhAAAAAAoYykgQWJpbWFnZXMgfCBEcmVhbXN0aW1lLmNvbQAAAABIAAAAAQAAAEgAAAABAAKgAgAEAAAAAQAAA3GgAwAEAAAAAQAABLAAAAAA;clipPath=inset(0.67% 9.55% 0% 0% round 5%);" parent="1" vertex="1">
          <mxGeometry x="80" y="80" width="133.55704697986576" height="200" as="geometry" />
        </mxCell>
        <mxCell id="9MnGjtC8QhtEFFOf_FAR-3" value="&lt;span style=&quot;font-size: 15pt; font-family: Arial; background-color: transparent; font-variant-numeric: normal; font-variant-east-asian: normal; vertical-align: baseline;&quot;&gt;imię, nazwisko:&amp;nbsp; &amp;nbsp; &amp;nbsp; &amp;nbsp;Gracia Krzak-Gonzalez&lt;br&gt;&lt;/span&gt;&lt;span style=&quot;font-size: 15pt; font-family: Arial; background-color: transparent; font-variant-numeric: normal; font-variant-east-asian: normal; vertical-align: baseline;&quot;&gt;narodowość:&amp;nbsp; &amp;nbsp; &amp;nbsp; &amp;nbsp; &amp;nbsp; &amp;nbsp;Meksykanka&lt;/span&gt;&lt;span style=&quot;font-size: 15pt; font-family: Arial; background-color: transparent; font-variant-numeric: normal; font-variant-east-asian: normal; vertical-align: baseline;&quot;&gt;&lt;br&gt;&lt;/span&gt;&lt;span style=&quot;font-size: 15pt; font-family: Arial; background-color: transparent; font-variant-numeric: normal; font-variant-east-asian: normal; vertical-align: baseline;&quot;&gt;zawód:&amp;nbsp; &amp;nbsp; &amp;nbsp; &amp;nbsp; &amp;nbsp; &amp;nbsp; &amp;nbsp; &amp;nbsp; &amp;nbsp; &amp;nbsp; emerytka&lt;/span&gt;&lt;span style=&quot;font-size: 15pt; font-family: Arial; background-color: transparent; font-variant-numeric: normal; font-variant-east-asian: normal; vertical-align: baseline;&quot;&gt;&lt;br&gt;&lt;/span&gt;&lt;span style=&quot;font-size: 15pt; font-family: Arial; background-color: transparent; font-variant-numeric: normal; font-variant-east-asian: normal; vertical-align: baseline;&quot;&gt;stan cywilny:&amp;nbsp; &amp;nbsp; &amp;nbsp; &amp;nbsp; &amp;nbsp; &amp;nbsp;mężatka&lt;/span&gt;&lt;span style=&quot;font-size: 15pt; font-family: Arial; background-color: transparent; font-variant-numeric: normal; font-variant-east-asian: normal; vertical-align: baseline;&quot;&gt;&lt;br&gt;&lt;/span&gt;&lt;span style=&quot;font-size: 15pt; font-family: Arial; background-color: transparent; font-variant-numeric: normal; font-variant-east-asian: normal; vertical-align: baseline;&quot;&gt;wiek:&amp;nbsp; &amp;nbsp; &amp;nbsp; &amp;nbsp; &amp;nbsp; &amp;nbsp; &amp;nbsp; &amp;nbsp; &amp;nbsp; &amp;nbsp; &amp;nbsp; &amp;nbsp;65 lat&lt;/span&gt;&lt;span id=&quot;docs-internal-guid-eb656688-7fff-00e2-7baa-049d25f1b06d&quot;&gt;&lt;/span&gt;" style="text;html=1;strokeColor=none;fillColor=none;align=left;verticalAlign=middle;whiteSpace=wrap;rounded=0;" parent="1" vertex="1">
          <mxGeometry x="240" y="90" width="550" height="160" as="geometry" />
        </mxCell>
        <mxCell id="9MnGjtC8QhtEFFOf_FAR-5" value="&lt;div style=&quot;&quot;&gt;&lt;span style=&quot;font-size: 16px; background-color: initial;&quot;&gt;Gracia od urodzenia mieszka w Meksyku. Już w młodości odkryła, że jazda na rowerze znacząco poprawia jakość życia w wielkim mieście. Gracia bardzo ceni sobie bezpieczeństwo. Niestety, na ruchliwych ulicach Meksyku można spotkać wielu nieodpowiedzialnych uczestników ruchu. Gracii przydałby się rejestrator jazdy, aby w razie nieszczęśliwego wypadku dysponowała materiałem dowodowym.&lt;/span&gt;&lt;/div&gt;&lt;span id=&quot;docs-internal-guid-ec5d6b2f-7fff-9428-3c5d-aab0a95144c4&quot;&gt;&lt;/span&gt;" style="text;html=1;strokeColor=none;fillColor=none;align=center;verticalAlign=top;whiteSpace=wrap;rounded=0;" parent="1" vertex="1">
          <mxGeometry x="40" y="360" width="620" height="120" as="geometry" />
        </mxCell>
        <mxCell id="9MnGjtC8QhtEFFOf_FAR-6" value="&lt;b&gt;&lt;font style=&quot;font-size: 21px;&quot;&gt;HISTORIA&lt;/font&gt;&lt;/b&gt;" style="text;html=1;align=center;verticalAlign=middle;resizable=0;points=[];autosize=1;strokeColor=none;fillColor=none;" parent="1" vertex="1">
          <mxGeometry x="280" y="320" width="120" height="40" as="geometry" />
        </mxCell>
        <mxCell id="9MnGjtC8QhtEFFOf_FAR-9" value="&lt;b style=&quot;font-size: 21px;&quot;&gt;&lt;span style=&quot;white-space: pre;&quot;&gt; &lt;/span&gt;CELE&lt;/b&gt;" style="text;html=1;align=center;verticalAlign=middle;resizable=0;points=[];autosize=1;strokeColor=none;fillColor=none;" parent="1" vertex="1">
          <mxGeometry x="213.56" y="585" width="130" height="40" as="geometry" />
        </mxCell>
        <mxCell id="9MnGjtC8QhtEFFOf_FAR-10" value="&lt;b&gt;&lt;font style=&quot;font-size: 21px;&quot;&gt;OBAWY&lt;/font&gt;&lt;/b&gt;" style="text;html=1;align=center;verticalAlign=middle;resizable=0;points=[];autosize=1;strokeColor=none;fillColor=none;" parent="1" vertex="1">
          <mxGeometry x="145" y="700" width="100" height="40" as="geometry" />
        </mxCell>
        <mxCell id="9MnGjtC8QhtEFFOf_FAR-11" value="&lt;p style=&quot;line-height:1.38;margin-top:0pt;margin-bottom:0pt;&quot; dir=&quot;ltr&quot;&gt;&lt;/p&gt;&lt;div&gt;&lt;/div&gt;&lt;font style=&quot;font-size: 16px;&quot;&gt;&lt;span style=&quot;font-family: Arial; background-color: transparent; font-variant-numeric: normal; font-variant-east-asian: normal; vertical-align: baseline;&quot;&gt;Trudność montażu i obsługi rejestratora jazdy.&lt;/span&gt;&lt;span style=&quot;font-family: Arial; background-color: transparent; font-variant-numeric: normal; font-variant-east-asian: normal; vertical-align: baseline;&quot;&gt;&lt;br&gt;&lt;/span&gt;&lt;span style=&quot;font-family: Arial; background-color: transparent; font-variant-numeric: normal; font-variant-east-asian: normal; vertical-align: baseline;&quot;&gt;Szybko wyczerpująca się bateria uniemożliwiająca rejestrowanie dłuższych tras.&lt;/span&gt;&lt;/font&gt;&lt;p&gt;&lt;/p&gt;&lt;span id=&quot;docs-internal-guid-54c61a43-7fff-081e-ac6f-ec47f6fe2569&quot;&gt;&lt;/span&gt;" style="text;html=1;strokeColor=none;fillColor=none;align=center;verticalAlign=middle;whiteSpace=wrap;rounded=0;" parent="1" vertex="1">
          <mxGeometry x="230" y="660" width="426.44" height="130" as="geometry" />
        </mxCell>
        <mxCell id="9MnGjtC8QhtEFFOf_FAR-12" value="&lt;b&gt;&lt;font style=&quot;font-size: 21px;&quot;&gt;POTRZEBY&lt;/font&gt;&lt;/b&gt;" style="text;html=1;align=center;verticalAlign=middle;resizable=0;points=[];autosize=1;strokeColor=none;fillColor=none;" parent="1" vertex="1">
          <mxGeometry x="230" y="840" width="140" height="40" as="geometry" />
        </mxCell>
        <mxCell id="9MnGjtC8QhtEFFOf_FAR-13" value="&lt;br&gt;&lt;font style=&quot;font-size: 16px;&quot;&gt;&lt;b id=&quot;docs-internal-guid-828413a5-7fff-146d-9173-ac745d594bb3&quot; style=&quot;font-weight:normal;&quot;&gt;&lt;span style=&quot;font-family: Arial; color: rgb(0, 0, 0); background-color: transparent; font-weight: 400; font-style: normal; font-variant: normal; text-decoration: none; vertical-align: baseline;&quot;&gt;Urządzenie łatwe w instalacji. Integracja z aplikacją z intuicyjnym, przyjaznym interfejsem. Łatwość przechowywania i udostępniania zgromadzonych nagrań.&lt;/span&gt;&lt;/b&gt;&lt;br&gt;&lt;/font&gt;" style="text;html=1;strokeColor=none;fillColor=none;align=center;verticalAlign=middle;whiteSpace=wrap;rounded=0;" parent="1" vertex="1">
          <mxGeometry x="386" y="810" width="410" height="90" as="geometry" />
        </mxCell>
        <mxCell id="9MnGjtC8QhtEFFOf_FAR-14" value="&lt;b&gt;&lt;font style=&quot;font-size: 21px;&quot;&gt;PRZYDATNE&lt;br&gt;&lt;/font&gt;&lt;/b&gt;" style="text;html=1;align=center;verticalAlign=middle;resizable=0;points=[];autosize=1;strokeColor=none;fillColor=none;" parent="1" vertex="1">
          <mxGeometry x="95" y="945" width="150" height="40" as="geometry" />
        </mxCell>
        <mxCell id="9MnGjtC8QhtEFFOf_FAR-16" value="&lt;br&gt;&lt;font style=&quot;font-size: 16px;&quot;&gt;&lt;b id=&quot;docs-internal-guid-1348e3cd-7fff-1284-6ce5-cb71970c5e83&quot; style=&quot;font-weight:normal;&quot;&gt;&lt;span style=&quot;font-family: Arial; color: rgb(0, 0, 0); background-color: transparent; font-weight: 400; font-style: normal; font-variant: normal; text-decoration: none; vertical-align: baseline;&quot;&gt;Wskaźnik poziomu naładowania rejestratora. Obsługa zewnętrznych nośników pamięci (karta SD).&lt;/span&gt;&lt;/b&gt;&lt;br&gt;&lt;/font&gt;" style="text;html=1;strokeColor=none;fillColor=none;align=center;verticalAlign=middle;whiteSpace=wrap;rounded=0;" parent="1" vertex="1">
          <mxGeometry x="270.22" y="930" width="326" height="70" as="geometry" />
        </mxCell>
        <mxCell id="9MnGjtC8QhtEFFOf_FAR-17" value="&lt;b&gt;&lt;font style=&quot;font-size: 21px;&quot;&gt;ZNAJOMOŚĆ TECHNOLOGII&lt;br&gt;&lt;/font&gt;&lt;/b&gt;" style="text;html=1;align=center;verticalAlign=middle;resizable=0;points=[];autosize=1;strokeColor=none;fillColor=none;" parent="1" vertex="1">
          <mxGeometry x="166" y="1060" width="310" height="40" as="geometry" />
        </mxCell>
        <mxCell id="9MnGjtC8QhtEFFOf_FAR-18" value="&lt;font style=&quot;font-size: 16px;&quot;&gt;&lt;b id=&quot;docs-internal-guid-8e8428c6-7fff-ed7c-fc14-69e5486afa28&quot; style=&quot;font-weight:normal;&quot;&gt;&lt;span style=&quot;font-family: Arial; color: rgb(0, 0, 0); background-color: transparent; font-weight: 400; font-style: normal; font-variant: normal; text-decoration: none; vertical-align: baseline;&quot;&gt;android, media społecznościowe&lt;/span&gt;&lt;/b&gt;&lt;br&gt;&lt;/font&gt;" style="text;html=1;strokeColor=none;fillColor=none;align=center;verticalAlign=middle;whiteSpace=wrap;rounded=0;" parent="1" vertex="1">
          <mxGeometry x="470" y="1055" width="300" height="50" as="geometry" />
        </mxCell>
        <mxCell id="9MnGjtC8QhtEFFOf_FAR-21" value="" style="shape=mxgraph.signs.transportation.bicycle_1;html=1;pointerEvents=1;fillColor=#cc0066;strokeColor=none;verticalLabelPosition=bottom;verticalAlign=top;align=center;flipH=1;rotation=30;" parent="1" vertex="1">
          <mxGeometry x="607.05" y="250.29" width="61" height="44" as="geometry" />
        </mxCell>
        <mxCell id="9MnGjtC8QhtEFFOf_FAR-43" value="" style="group" parent="1" vertex="1" connectable="0">
          <mxGeometry x="640" y="80" width="140" height="140" as="geometry" />
        </mxCell>
        <mxCell id="9MnGjtC8QhtEFFOf_FAR-33" value="" style="ellipse;whiteSpace=wrap;html=1;fillColor=#000000;" parent="9MnGjtC8QhtEFFOf_FAR-43" vertex="1">
          <mxGeometry width="140" height="140" as="geometry" />
        </mxCell>
        <mxCell id="9MnGjtC8QhtEFFOf_FAR-34" value="" style="ellipse;whiteSpace=wrap;html=1;aspect=fixed;" parent="9MnGjtC8QhtEFFOf_FAR-43" vertex="1">
          <mxGeometry x="5.833333333333334" y="5.833333333333334" width="128.33333333333334" height="128.33333333333334" as="geometry" />
        </mxCell>
        <mxCell id="9MnGjtC8QhtEFFOf_FAR-35" value="" style="endArrow=none;html=1;rounded=0;exitX=0;exitY=1;exitDx=0;exitDy=0;entryX=1;entryY=0;entryDx=0;entryDy=0;" parent="9MnGjtC8QhtEFFOf_FAR-43" source="9MnGjtC8QhtEFFOf_FAR-34" target="9MnGjtC8QhtEFFOf_FAR-34" edge="1">
          <mxGeometry width="50" height="50" relative="1" as="geometry">
            <mxPoint x="40.833333333333336" y="99.16666666666667" as="sourcePoint" />
            <mxPoint x="99.16666666666667" y="40.833333333333336" as="targetPoint" />
          </mxGeometry>
        </mxCell>
        <mxCell id="9MnGjtC8QhtEFFOf_FAR-36" value="" style="endArrow=none;html=1;rounded=0;exitX=0;exitY=0.5;exitDx=0;exitDy=0;entryX=1;entryY=0.5;entryDx=0;entryDy=0;" parent="9MnGjtC8QhtEFFOf_FAR-43" source="9MnGjtC8QhtEFFOf_FAR-34" target="9MnGjtC8QhtEFFOf_FAR-34" edge="1">
          <mxGeometry width="50" height="50" relative="1" as="geometry">
            <mxPoint x="36.29398154053043" y="127.03935179280298" as="sourcePoint" />
            <mxPoint x="127.03935179280292" y="36.29398154053037" as="targetPoint" />
          </mxGeometry>
        </mxCell>
        <mxCell id="9MnGjtC8QhtEFFOf_FAR-37" value="" style="endArrow=none;html=1;rounded=0;exitX=0.5;exitY=1;exitDx=0;exitDy=0;entryX=0.5;entryY=0;entryDx=0;entryDy=0;" parent="9MnGjtC8QhtEFFOf_FAR-43" source="9MnGjtC8QhtEFFOf_FAR-34" target="9MnGjtC8QhtEFFOf_FAR-34" edge="1">
          <mxGeometry width="50" height="50" relative="1" as="geometry">
            <mxPoint x="47.960648207197096" y="138.70601845946965" as="sourcePoint" />
            <mxPoint x="138.7060184594696" y="47.96064820719703" as="targetPoint" />
          </mxGeometry>
        </mxCell>
        <mxCell id="9MnGjtC8QhtEFFOf_FAR-38" value="" style="endArrow=none;html=1;rounded=0;exitX=1;exitY=1;exitDx=0;exitDy=0;entryX=0;entryY=0;entryDx=0;entryDy=0;" parent="9MnGjtC8QhtEFFOf_FAR-43" source="9MnGjtC8QhtEFFOf_FAR-34" target="9MnGjtC8QhtEFFOf_FAR-34" edge="1">
          <mxGeometry width="50" height="50" relative="1" as="geometry">
            <mxPoint x="59.62731487386377" y="150.3726851261363" as="sourcePoint" />
            <mxPoint x="150.37268512613625" y="59.6273148738637" as="targetPoint" />
          </mxGeometry>
        </mxCell>
        <mxCell id="9MnGjtC8QhtEFFOf_FAR-39" value="" style="rounded=1;whiteSpace=wrap;html=1;fillColor=#000000;" parent="9MnGjtC8QhtEFFOf_FAR-43" vertex="1">
          <mxGeometry x="24.5" y="35" width="74.66666666666667" height="70" as="geometry" />
        </mxCell>
        <mxCell id="9MnGjtC8QhtEFFOf_FAR-40" value="" style="triangle;whiteSpace=wrap;html=1;fillColor=#000000;rotation=-180;" parent="9MnGjtC8QhtEFFOf_FAR-43" vertex="1">
          <mxGeometry x="87.5" y="40.833333333333336" width="28" height="58.333333333333336" as="geometry" />
        </mxCell>
        <mxCell id="9MnGjtC8QhtEFFOf_FAR-41" value="" style="ellipse;whiteSpace=wrap;html=1;aspect=fixed;fillColor=#FF0000;" parent="9MnGjtC8QhtEFFOf_FAR-43" vertex="1">
          <mxGeometry x="44.333333333333336" y="50.16666666666667" width="11.666666666666668" height="11.666666666666668" as="geometry" />
        </mxCell>
        <mxCell id="9MnGjtC8QhtEFFOf_FAR-42" value="" style="ellipse;whiteSpace=wrap;html=1;aspect=fixed;fillColor=none;strokeColor=#FFFFFF;strokeWidth=2;" parent="9MnGjtC8QhtEFFOf_FAR-43" vertex="1">
          <mxGeometry x="5.833333333333334" y="5.833333333333334" width="128.33333333333334" height="128.33333333333334" as="geometry" />
        </mxCell>
        <mxCell id="cdlqq1NdYdRUZiqAoaAK-1" value="&lt;font style=&quot;font-size: 16px;&quot;&gt;Rejestracja jazdy na rowerze na wypadek nieprzewidywalnych zdarzeń drogowych.&lt;/font&gt;" style="text;html=1;strokeColor=none;fillColor=none;align=center;verticalAlign=middle;whiteSpace=wrap;rounded=0;" vertex="1" parent="1">
          <mxGeometry x="370" y="570" width="280" height="60" as="geometry" />
        </mxCell>
      </root>
    </mxGraphModel>
  </diagram>
</mxfile>
